<?xml version="1.0" encoding="utf-8"?>
<!-- Generator: Adobe Illustrator 21.1.0, SVG Export Plug-In . SVG Version: 6.00 Build 0)  -->
<svg version="1.1" id="Layer_1" xmlns="http://www.w3.org/2000/svg" xmlns:xlink="http://www.w3.org/1999/xlink" x="0px" y="0px"
	 viewBox="0 0 106.7 106.7" style="enable-background:new 0 0 106.7 106.7;" xml:space="preserve">
<style type="text/css">
	.st0{fill:#D7DFE7;}
	.st1{fill:#11394F;}
</style>
<g>
	<circle class="st0" cx="53.3" cy="53.3" r="53.3"/>
	<g>
		<path class="st1" d="M58.7,89.7c0,0.1,0.1,0.2,0.1,0.4c2.7,0.7,5.4,1.5,8.1,2.2c1.6,0,3.2,0,4.8,0c4.7-1.1,8-3.9,9.6-8.5
			c0.7-2,1.2-4.1,1.7-6.1c0.2-0.6,0.5-1.2,0.3-2.3C76.8,83.4,68.7,88.2,58.7,89.7z"/>
		<path class="st1" d="M47.6,16.9c-0.1-0.1-0.1-0.2-0.2-0.4c-2.6-0.7-5.2-1.4-7.8-2.2c-1.6,0-3.2,0-4.8,0c-5.4,1.3-8.6,4.8-10,10.1
			c-0.4,1.6-0.9,3.2-1.3,4.7c-0.1,0.2-0.2,0.5,0.2,0.9C29.9,22.6,38,18.4,47.6,16.9z"/>
		<path class="st1" d="M52.1,19.5c-4.9,0.2-9.7,1-14,3.3c-11.2,5.8-18.2,14.7-19.5,27.6c-0.6,6.6,0.5,12.8,3.7,18.5
			c7.6,13.7,22.1,20.5,37.6,17.7C76.4,83.7,88.1,69.8,88.2,49c-0.1-4.9-3.2-12.7-9.5-19C71.4,22.6,62.5,19.1,52.1,19.5z M43.3,28.8
			c5.5,0,9.9,4.2,9.9,9.5c0,5.3-4.4,9.4-9.9,9.4c-5.6,0-9.7-4.1-9.7-9.5C33.6,33,38,28.8,43.3,28.8z M38.4,73.3
			c-5.4,0-9.8-4.3-9.8-9.5c0-5.5,4.1-9.4,9.8-9.4c5.5,0,9.8,4.1,9.8,9.2C48.2,69,43.8,73.3,38.4,73.3z M48.8,53.6
			c0-2.3,1.9-4.1,4.3-4.2c2.3,0,4.3,1.9,4.3,4.3c0,2.3-1.8,4-4.2,4C50.7,57.7,48.8,55.8,48.8,53.6z M63.1,77.9
			c-5.5,0-9.6-4.1-9.5-9.6c0-5.4,4.3-9.3,9.9-9.3c5.4,0,9.6,4.2,9.6,9.4C73,73.9,68.8,77.9,63.1,77.9z M68.4,52.4
			c-5.5,0-9.8-4.1-9.8-9.5c0-5.4,4.1-9.5,9.8-9.5c5.3-0.1,9.8,4.4,9.8,9.5C78.1,48.2,73.8,52.4,68.4,52.4z"/>
		<path class="st1" d="M86,26.5c-3-1.2-6.2-1.7-9.2-2.4c-0.1,0-0.2,0.1-0.6,0.2c8.2,6.2,13,14.3,14.4,24.3c0.6-0.3,0.7-0.6,0.8-1
			c0.7-2.5,1.4-4.9,2-7.4C94.6,34.5,91.4,28.6,86,26.5z"/>
		<path class="st1" d="M15.5,59.4c-1,2.9-2.2,5.7-2.4,8.7c-0.1,1.8,0,3.6,0.8,5.3c1.3,3.2,3.6,5.5,6.9,6.8c2.7,1.1,5.6,1.5,8.6,2.1
			C22,76.3,17.4,68.7,15.5,59.4z"/>
	</g>
</g>
</svg>
