<?xml version="1.0" encoding="utf-8"?>
<!-- Generator: Adobe Illustrator 21.1.0, SVG Export Plug-In . SVG Version: 6.00 Build 0)  -->
<svg version="1.1" id="Layer_1" xmlns="http://www.w3.org/2000/svg" xmlns:xlink="http://www.w3.org/1999/xlink" x="0px" y="0px"
	 viewBox="0 0 106.7 106.7" style="enable-background:new 0 0 106.7 106.7;" xml:space="preserve">
<style type="text/css">
	.st0{fill:#D7DFE7;}
	.st1{fill:#11394F;}
</style>
<g>
	<circle class="st0" cx="53.3" cy="53.3" r="53.3"/>
	<g>
		<g>
			<path class="st1" d="M29.6,53.3c0-9.8,0-19.5,0-29.3c0-4.1,2.7-6.8,6.8-6.8c9.1,0,25,0,34,0c3.9,0,6.7,2.7,6.7,6.6
				c0,19.6,0,39.2,0,58.7c0,4.1-2.7,6.8-6.8,6.8c-9.1,0-25.1,0-34.2,0c-3.8,0-6.5-2.7-6.5-6.5C29.6,73,29.6,63.1,29.6,53.3
				C29.6,53.3,29.6,53.3,29.6,53.3z M72.7,51.2c0-7.5,0-14.9,0-22.4c0-1.3,0-1.3-1.3-1.3c-9.9,0-26.6,0-36.4,0
				c-0.9,0-1.1,0.3-1.1,1.1c0,15,0,30.1,0,45.1c0,1,0.2,1.2,1.2,1.2c9.9,0,26.6,0,36.5,0c0.9,0,1.1-0.3,1.1-1.1
				C72.7,66.3,72.7,58.8,72.7,51.2z M49.5,81.9c0,2.1,1.6,3.8,3.7,3.9c2.1,0,3.8-1.7,3.9-3.7c0-2.1-1.7-3.9-3.8-3.8
				C51.2,78.2,49.6,79.9,49.5,81.9z"/>
		</g>
	</g>
</g>
</svg>
