<?xml version="1.0" encoding="utf-8"?>
<!-- Generator: Adobe Illustrator 21.1.0, SVG Export Plug-In . SVG Version: 6.00 Build 0)  -->
<svg version="1.1" id="Layer_1" xmlns="http://www.w3.org/2000/svg" xmlns:xlink="http://www.w3.org/1999/xlink" x="0px" y="0px"
	 viewBox="0 0 106.7 106.7" style="enable-background:new 0 0 106.7 106.7;" xml:space="preserve">
<style type="text/css">
	.st0{fill:#D7DFE7;}
	.st1{fill:#11394F;}
</style>
<g>
	<circle class="st0" cx="53.3" cy="53.3" r="53.3"/>
	<g id="XMLID_40_">
		<g id="XMLID_41_">
			<path id="XMLID_42_" class="st1" d="M91.2,50.8c0,1.5,0,3,0,4.4c-0.2,0.2-0.1,0.5-0.2,0.8c-0.3,2.8-0.8,5.6-1.7,8.3
				c-0.9,2.7-1.9,5.3-3.4,7.8c-1.5,2.5-3.1,4.9-5,7.1c-2.4,2.9-5.4,5.2-8.7,7c-2.6,1.4-5.2,2.6-8,3.5c-3,0.9-6,1.5-9.1,1.5
				c-2.6,0-5.2,0-7.8-0.3c-2.6-0.3-5.1-1.1-7.5-2c-4.5-1.7-8.5-4.2-12.1-7.4c-2-1.7-3.6-3.8-5.2-5.8c-0.6-0.8-1.1-1.7-1.6-2.6
				c-1.4-2.2-2.4-4.5-3.3-6.9c-0.6-1.5-1-3.1-1.3-4.8c-0.1-0.6-0.1-1.2-0.2-1.7c-0.3-1.2-0.6-2.3-0.6-3.5c0-12.3,0-24.6,0-36.9
				c0-2,1.5-3.4,3.4-3.8c1.7-0.3,3,0.6,4.3,1.4c2.2,1.4,4.4,3,6.4,4.6c1,0.8,1.7,1.2,2.7,0.1c0.2-0.2,0.6-0.4,0.9-0.5
				c2.3-1.4,4.7-2.6,7.3-3.4c1.9-0.6,3.8-1.1,5.8-1.6c1.4-0.3,2.9-0.5,4.3-0.6c4.8-0.4,9.5,0,14.1,1.5c3,1,5.8,2.2,8.5,3.9
				c3.2,1.9,6,4.3,8.5,7c1.5,1.7,3,3.5,4.2,5.5c1.5,2.6,2.9,5.3,3.8,8.2c0.5,1.9,1,3.8,1.3,5.7C90.9,48.6,90.9,49.7,91.2,50.8z
				 M47.8,72.7c1,0,1.8,0,2.7-0.3c1.3-0.6,2.3-1.5,3.4-2.5c1.4-1.4,2.8-2.8,4.3-4.2c1.7-1.7,3.3-3.4,5-5.1
				c3.8-3.8,7.6-7.6,11.5-11.4c1-1,2-2.1,2.4-3.5c0.6-2.2,0.5-4.3-0.7-6.4c-0.8-1.4-2-2.5-3.4-2.9c-3.1-1.1-6-0.5-8.4,1.9
				C59.1,43.7,53.8,49,48.5,54.3c-0.4,0.4-0.6,0.4-1,0c-1.6-1.6-3.2-3.3-4.9-4.9c-1.5-1.5-3-2.9-5.2-3.2c-1.7-0.2-3.5-0.1-4.9,0.9
				c-1.7,1.1-3,2.5-3.5,4.7c-0.5,2.4-0.2,4.6,1.4,6.3c4,4.3,8.1,8.4,12.3,12.5C44.1,72,45.8,72.9,47.8,72.7z"/>
		</g>
	</g>
</g>
</svg>
