<?xml version="1.0" encoding="utf-8"?>
<!-- Generator: Adobe Illustrator 21.1.0, SVG Export Plug-In . SVG Version: 6.00 Build 0)  -->
<svg version="1.1" id="Layer_1" xmlns="http://www.w3.org/2000/svg" xmlns:xlink="http://www.w3.org/1999/xlink" x="0px" y="0px"
	 viewBox="0 0 106.7 106.7" style="enable-background:new 0 0 106.7 106.7;" xml:space="preserve">
<style type="text/css">
	.st0{fill:#D7DFE7;}
	.st1{fill:#11394F;}
</style>
<g>
	<circle class="st0" cx="53.3" cy="53.3" r="53.3"/>
	<g id="XMLID_31_">
		<g id="XMLID_32_">
			<path id="XMLID_37_" class="st1" d="M73.1,15.3c1.1,0.2,2.2,0.3,3.3,0.6c7.8,2,13.6,8.5,14.7,16.5c0.1,1,0.2,1.9,0.2,2.9
				c0,12.1,0,24.2,0,36.2c0,9.1-6.2,17-15,19.1c-1.6,0.4-3.2,0.6-4.8,0.6c-12.2,0-24.4,0-36.6,0c-9.1,0-17.3-6.7-19.1-15.7
				c-0.3-1.4-0.4-2.9-0.4-4.4c0-12.2,0-24.3,0-36.5c0-9.1,6.7-17.3,15.6-19.1c0.9-0.2,1.7-0.3,2.6-0.4
				C46.8,15.3,59.9,15.3,73.1,15.3z M21.8,53.3c0,6.1,0,12.1,0,18.2c0,0.8,0,1.5,0.2,2.3c1.2,6.5,6.6,11.1,13.2,11.1
				c12.1,0,24.2,0,36.3,0c1.1,0,2.2-0.1,3.2-0.4c6.1-1.5,10.2-6.8,10.2-13.2c0-12,0-24,0-36c0-0.7,0-1.4-0.1-2.1
				c-0.9-6.6-6.5-11.5-13.2-11.5c-12.1,0-24.2,0-36.4,0c-0.8,0-1.6,0-2.3,0.2c-6.6,1.2-11.1,6.6-11.1,13.3
				C21.8,41.3,21.8,47.3,21.8,53.3z"/>
			<path id="XMLID_34_" class="st1" d="M34.5,53.3c0-10.4,8.6-18.9,19-18.9c10.4,0,18.9,8.5,18.8,19c0,10.4-8.5,18.8-18.9,18.8
				C42.9,72.2,34.4,63.7,34.5,53.3z M66.5,53.4c0-7.2-5.9-13.1-13.1-13.1c-7.2,0-13.2,5.9-13.2,13.1c0,7.3,5.9,13.2,13.2,13.2
				C60.6,66.5,66.5,60.6,66.5,53.4z"/>
			<path id="XMLID_33_" class="st1" d="M74.3,28c2.4,0,4.4,1.9,4.4,4.3c0,2.4-1.9,4.4-4.3,4.4c-2.4,0-4.3-1.9-4.4-4.3
				C70,29.9,71.9,28,74.3,28z"/>
		</g>
	</g>
</g>
</svg>
