<?xml version="1.0" encoding="UTF-8"?>
<!DOCTYPE svg PUBLIC "-//W3C//DTD SVG 1.1//EN" "http://www.w3.org/Graphics/SVG/1.1/DTD/svg11.dtd">
<!-- Creator: CorelDRAW X6 -->
<svg xmlns="http://www.w3.org/2000/svg" xml:space="preserve" width="29.5895cm" height="3.7514cm" version="1.1" style="shape-rendering:geometricPrecision; text-rendering:geometricPrecision; image-rendering:optimizeQuality; fill-rule:evenodd; clip-rule:evenodd"
viewBox="0 0 30097 3816"
 xmlns:xlink="http://www.w3.org/1999/xlink">
 <defs>
  <style type="text/css">
   <![CDATA[
    .fil0 {fill:#1C1B17}
    .fil2 {fill:#2B2A29}
    .fil1 {fill:#2B2A29;fill-rule:nonzero}
   ]]>
  </style>
 </defs>
 <g id="Layer_x0020_1">
  <metadata id="CorelCorpID_0Corel-Layer"/>
  <path class="fil0" d="M21350 3816c260,0 392,-38 613,-154 32,-17 87,-59 108,-80 34,-32 70,-59 95,-98 25,-38 49,-74 67,-120 18,-44 29,-105 42,-153 110,-18 222,-108 284,-193 6,-9 6,-11 15,-22 56,-73 94,-164 112,-262 31,-167 -7,-238 -1,-278 67,-36 101,-45 154,-105 88,-101 139,-215 223,-303 20,-21 125,-129 125,-139 -9,-26 -40,-48 -58,-67 -79,-86 -111,-126 -177,-222 -18,-26 -37,-55 -53,-80 -31,-51 -82,-101 -130,-135 -27,-20 -66,-33 -85,-49 -3,-69 37,-89 2,-271 -16,-84 -45,-154 -82,-215 -42,-69 -80,-113 -134,-162 -51,-47 -103,-70 -165,-95 -1,-1 -12,-6 -13,-6 -1,0 -3,-1 -4,-2l-9 -4c-8,-5 -48,-165 -78,-211 -57,-87 -55,-80 -129,-155 -23,-23 -79,-62 -113,-81 -176,-103 -360,-154 -609,-154l-427 0c-438,744 -2159,1051 -2734,1089 -974,65 -2402,515 -1945,1732 83,219 235,348 457,385 184,30 391,2 621,-84 566,-213 1015,-560 1348,-1041 177,-266 354,-533 527,-801 134,-198 269,-338 404,-419 7,-6 17,-11 31,-16 47,-18 80,-3 98,45 22,58 24,169 7,332 -18,128 -54,211 -106,248 -97,64 -164,119 -200,166 -86,125 -171,250 -257,375 1,3 1,6 2,9 52,268 108,461 167,580 61,121 134,202 220,243 85,41 196,27 332,-41 43,-22 73,-48 89,-78 -12,-25 -19,-88 -19,-190 9,-171 31,-339 66,-502 18,-85 62,-145 132,-180 31,-15 60,-21 88,-16 27,6 53,16 77,33 24,16 46,37 65,62 19,25 34,49 45,72 59,116 79,233 62,349 0,1 1,2 2,3 101,-50 178,-132 232,-244 42,-87 60,-180 55,-279 -1,-47 11,-97 38,-152 26,-54 62,-93 108,-115 17,-9 35,-13 54,-11 18,2 35,4 52,5 29,1 52,-10 68,-34 13,-19 26,-45 42,-78l0 0c7,-10 19,-54 34,-131 15,-77 35,-187 62,-330 40,-222 109,-369 206,-440 -4,-109 7,-239 32,-391 1,-35 5,-55 13,-58 5,-3 23,10 57,37 127,104 363,194 383,317 55,339 -163,469 -354,565 -48,24 -90,56 -127,97 -51,60 -90,141 -115,243 -15,51 -29,104 -42,156 -14,52 -26,105 -37,158 -18,53 -34,97 -48,131 -15,34 -28,62 -39,84 -24,34 -55,45 -93,32 -42,-14 -79,-13 -112,4 -43,21 -69,68 -77,138 -11,56 -28,114 -51,173 -24,59 -53,117 -87,172 -34,55 -74,105 -120,150 -45,44 -92,79 -140,103 -95,377 -262,625 -499,744 -291,146 -520,52 -687,-282 -112,-260 -188,-525 -228,-796 -8,-55 -14,-106 -18,-151 -57,84 -116,168 -175,252 -111,163 -220,307 -326,433 -107,126 -210,237 -310,332 -271,252 -566,439 -886,559 -56,21 -112,37 -167,49 73,13 153,19 252,19 1767,0 2131,0 3898,0zm-1063 -3816l-2835 0c-249,0 -433,51 -609,154 -33,19 -90,58 -113,81 -74,75 -72,68 -129,155 -30,46 -70,206 -78,211l-9 4c-1,1 -3,2 -4,2 0,0 -12,5 -13,6 -62,25 -114,48 -165,95 -54,49 -92,93 -134,162 -37,61 -66,131 -82,215 -35,182 5,202 2,271 -19,16 -58,29 -85,49 -48,34 -99,84 -130,135 -16,25 -35,54 -53,80 -66,96 -98,136 -177,222 -18,19 -49,41 -58,67 0,10 105,118 125,139 84,88 135,202 223,303 39,44 68,61 107,81 27,-390 168,-771 430,-1047 508,-536 1077,-573 1766,-624 800,-59 1471,-164 2021,-761zm-2720 1924c-126,-45 -302,-60 -445,-23 -32,74 -53,406 -29,513 204,-63 314,-14 405,-26 87,-11 78,-80 91,-146 12,-59 17,-128 33,-188 56,-15 142,-20 197,-20 57,1 157,19 197,9 32,-53 115,-331 31,-432 -70,-82 -323,-84 -452,-51 4,109 -27,248 -28,364zm2926 -1011c-127,-45 -302,-60 -445,-23 -32,74 -53,406 -29,512 204,-62 314,-13 405,-25 87,-11 78,-81 91,-146 12,-59 17,-128 33,-188 56,-16 142,-21 197,-20 57,1 157,19 197,8 32,-53 115,-330 30,-431 -69,-82 -322,-84 -451,-51 3,109 -27,247 -28,364zm863 1618c-127,-45 -302,-60 -445,-23 -32,74 -53,406 -29,512 204,-62 314,-13 405,-25 87,-11 78,-81 91,-146 12,-59 17,-128 33,-188 56,-16 142,-21 197,-20 57,1 157,19 196,8 33,-53 116,-330 31,-431 -69,-82 -323,-84 -451,-51 3,109 -27,247 -28,364zm173 221c-13,29 0,87 2,118l11 114c40,16 148,-38 207,228 6,27 12,53 17,79 15,81 21,204 45,280 6,16 6,24 23,33 38,-20 9,-127 4,-174l-72 -456c-8,-27 -7,-47 -29,-85 -21,-38 -31,-68 -74,-99 -59,-42 -77,-32 -134,-38zm-1132 -501c-19,-37 -50,-62 -92,-74 -42,-12 -81,-9 -117,8 -22,12 -42,29 -59,52 -17,22 -31,47 -42,73 -11,26 -17,52 -19,80 -2,28 2,51 11,69 29,58 74,73 136,45 65,-23 107,-43 127,-59 24,-22 43,-52 56,-92 13,-40 13,-74 -1,-102z"/>
  <path class="fil1" d="M7120 2075c-8,3 -15,4 -21,5 -6,1 -10,2 -13,3 -7,7 -13,26 -18,59 -26,151 -68,288 -126,412 -57,124 -128,235 -211,334 -165,198 -349,298 -551,298 -224,-10 -341,-151 -351,-425 1,-65 8,-129 21,-193 14,-64 33,-129 58,-196 52,-132 87,-203 107,-214 19,-12 19,6 2,54 -18,46 -38,101 -58,163 -21,63 -31,132 -31,208 1,75 29,144 83,206 53,59 134,93 244,99 263,0 471,-118 625,-355 47,-73 79,-149 95,-228 8,-40 15,-83 20,-131 5,-47 9,-99 12,-155 1,-56 11,-93 29,-111 18,-16 45,-23 80,-20 27,-1 49,-4 68,-8 21,-5 39,-12 55,-21 16,-9 30,-21 44,-35 14,-14 30,-31 47,-50 36,-41 73,-76 111,-104 20,-14 37,-35 52,-63 1,-1 2,-3 3,-4 56,-108 158,-201 307,-280 25,-13 38,-22 38,-27 0,-4 -38,-6 -115,-4 -38,1 -75,5 -111,11 -36,7 -69,18 -99,32 -14,7 -23,7 -28,0 -5,-6 -5,-17 2,-32 9,-25 35,-69 77,-132 2,-2 4,-4 5,-5 55,-84 111,-155 169,-214 59,-59 121,-105 187,-138 79,-41 169,-87 269,-138 100,-51 210,-109 332,-174 9,-6 18,-10 26,-10 4,0 6,3 6,8 0,17 -24,60 -72,127 -31,44 -64,74 -97,89 -161,81 -292,148 -393,202 -102,53 -174,93 -218,120 -38,24 -66,46 -84,68 -18,22 -31,43 -40,64 58,-7 105,-13 141,-17 37,-4 64,-7 83,-8 37,-2 70,3 99,15 29,11 43,34 43,70 0,37 -30,80 -91,129 -30,25 -64,49 -101,72 -37,24 -77,46 -119,67 -85,41 -132,77 -141,109l-1 0c-4,14 14,40 53,77 43,39 64,68 64,88 0,10 -3,19 -10,25l-105 115c-4,4 -10,6 -18,4 -8,-1 -16,-3 -24,-6 -8,-2 -15,-6 -23,-10 -7,-4 -12,-6 -14,-7 -35,-18 -63,-26 -84,-26 -25,0 -50,14 -75,43 -20,24 -38,45 -55,63 -16,18 -33,33 -49,46 -17,14 -35,25 -54,34 -16,8 -34,14 -54,19l-2 3zm5583 -321l35 -34c54,-70 296,-392 93,-392 -115,0 -320,226 -388,328 -106,-2 -116,-87 -216,82 -52,90 -88,67 -149,67 -94,0 -168,174 -383,122 -184,-44 -114,-358 -102,-495 8,-90 38,-205 38,-261 -40,29 -111,216 -130,281 -90,304 31,818 -385,852 40,-59 71,-109 100,-183 50,-124 87,-334 94,-473 4,-69 1,-216 22,-260 -29,7 -34,32 -55,86 -157,392 -29,351 -150,721 -15,43 -31,69 -41,109 -56,0 -67,-10 -67,38 0,28 19,49 30,67 21,0 61,-5 79,3 34,16 2,49 40,49 150,0 301,-307 306,-373 21,15 25,39 43,61 47,58 164,86 237,41 112,-69 186,-199 234,-199 83,0 73,31 165,-43 42,-34 65,-92 119,-106 44,30 50,45 119,45 124,0 261,-29 352,-65 64,-25 104,-42 148,-72 -19,51 -30,84 -30,163 1,57 7,117 -5,174 -13,63 -5,50 -36,114 -77,161 -207,231 -234,272 -10,17 -15,42 0,60 15,18 44,16 65,14 82,-9 138,-73 181,-138 42,-65 78,-175 89,-252l16 -127c0,-32 3,-16 3,-32 0,-75 6,-155 5,-227 0,-4 2,-33 2,-62l332 -297c22,-21 35,-28 57,-49 55,-55 76,-66 76,-139 -79,-19 -43,-15 -152,4 -61,10 -108,18 -176,18 44,-66 177,-149 253,-149 55,0 48,48 110,62 113,25 228,-154 256,-263 22,-86 38,-211 50,-301 13,-100 24,-226 24,-333l-22 0c-18,77 -81,153 -110,375 -9,69 6,272 -37,320 -109,122 -115,-17 -189,-17 -85,0 -252,107 -318,174l-84 95c-27,38 -138,186 -15,186 95,0 141,-14 194,-15 -17,23 -90,78 -114,103l-379 271zm-223 -91l69 -80c39,-41 95,-122 166,-132 36,-5 83,17 101,41 -20,85 -197,171 -336,171zm-1372 -116c-2,31 -4,61 -5,90 -1,30 -3,60 -5,90 -4,58 -10,113 -19,168 -10,55 -21,109 -35,163 -42,154 -120,299 -235,435 -150,181 -317,271 -501,271 -96,0 -174,-29 -236,-86 -69,-62 -103,-148 -103,-258 0,-150 62,-327 187,-532 18,-31 31,-47 38,-47 3,0 4,2 4,7 0,17 -12,49 -35,94 -52,101 -77,190 -77,268 0,93 34,166 101,220 60,45 132,68 217,68 125,0 243,-38 355,-115 112,-78 182,-171 209,-278 6,-16 10,-38 12,-65 2,-27 3,-59 4,-96 0,-84 2,-138 5,-162 5,-27 14,-59 27,-95 12,-36 29,-78 49,-126 14,-31 26,-47 36,-47 6,0 9,6 9,18 0,2 0,5 -1,8 0,2 -1,5 -1,7zm-6742 -730c91,135 296,190 460,187 34,-1 47,-7 80,-8 235,-1 510,-72 714,-173 18,-9 35,-14 55,-24 21,-10 33,-17 54,-27 37,-19 74,-33 111,-49 105,-47 320,-220 426,-220 44,0 161,15 161,53l0 20c0,50 -174,226 -226,268 -147,119 -301,193 -477,263 -202,80 -188,69 -372,122 -123,36 -414,70 -546,68 -199,-3 -433,-40 -617,-117 -35,-14 -49,-27 -76,-43 -56,-33 -112,-55 -58,-145 20,-33 35,-40 66,-61 154,-102 166,-76 245,-114zm434 100c-105,0 -161,4 -265,-30 -48,-15 -98,-32 -122,-77l307 -120c68,-31 147,-72 176,-144 24,-61 48,-116 -34,-146 -62,-23 -192,-29 -253,6 -27,14 -37,29 -54,52 -21,29 -80,94 -82,125 25,13 70,26 107,27 -14,18 -23,18 -46,27 -19,8 -36,17 -54,26l-165 76c-20,10 -37,15 -56,24 -106,52 -201,106 -278,195 -43,50 -108,124 -108,212 0,157 102,207 241,259 122,45 226,66 331,75 -21,47 -41,102 -62,165 -17,51 -31,136 -41,254 -7,75 -13,137 -18,185 -6,48 -10,84 -14,108 -35,199 -156,300 -362,306 12,-16 26,-37 43,-64 47,-78 82,-166 105,-264 13,-58 24,-116 32,-175 9,-59 15,-120 17,-184 7,-123 12,-191 14,-206 4,-12 6,-20 6,-26 0,-2 -1,-4 -2,-4 -9,0 -32,50 -69,149 -40,106 -60,181 -60,224 0,214 -38,397 -114,550l-5 0c-9,0 -14,7 -14,21 0,20 6,41 18,62 13,24 30,41 50,52 28,10 52,15 73,15 48,0 97,-26 149,-79 59,-59 116,-161 170,-303 30,88 97,132 203,132l3 -3 -1 3c28,0 53,-5 76,-17 23,-12 45,-27 67,-46 21,-18 40,-39 58,-60 18,-22 36,-43 55,-63 14,-13 28,-21 42,-25 14,-3 31,-4 51,-3 13,2 26,0 39,-6 14,-5 27,-12 40,-21 13,-10 26,-19 38,-28 12,-10 24,-19 36,-28 17,-15 32,-25 44,-33 13,-7 23,-12 31,-15 22,-8 49,-33 79,-77 28,-45 46,-89 54,-131 4,-16 6,-30 8,-43 1,-12 2,-23 2,-32 0,-33 -8,-38 -24,-14 -9,12 -19,27 -29,45 -10,19 -21,40 -33,64 -11,28 -26,42 -43,42 -4,0 -9,-2 -15,-6 -6,-4 -11,-6 -15,-6 -1,2 -3,6 -6,10 -3,2 -6,6 -9,10 -3,4 -6,9 -9,15 -30,43 -54,64 -71,64 -4,0 -10,-2 -19,-6 -9,-4 -20,-6 -33,-6 -30,0 -67,18 -111,54 -73,60 -146,91 -220,91l0 0c-73,0 -123,-19 -151,-56 -33,-45 -49,-106 -49,-182 0,-19 1,-40 3,-63 2,-23 4,-50 7,-80 9,-105 19,-192 32,-263 91,5 186,3 295,3 350,0 772,-117 1078,-282 135,-73 188,-109 306,-201 51,-39 165,-158 212,-215 59,-73 131,-201 131,-296 0,-138 -127,-140 -213,-140 -146,0 -510,250 -695,326 -122,51 -227,103 -368,138 -88,22 -353,77 -437,77zm4463 547c23,21 19,8 32,27 42,61 -16,152 -23,203 24,-3 23,-15 33,-37 28,-54 64,-115 74,-182 7,-55 -12,-103 -61,-114l-55 103zm-7302 -894l2 3c41,22 115,98 156,60 14,-14 30,-24 45,-38 11,-10 30,-33 37,-46 30,-59 -52,-118 -102,-127 -8,2 -63,60 -74,70 -14,14 -72,59 -64,78zm-574 1097l2 2c41,22 115,99 155,60 15,-14 30,-24 45,-38 11,-10 31,-33 37,-46 30,-59 -52,-118 -102,-127 -8,2 -62,60 -73,70 -15,14 -73,59 -64,79zm2208 -889l2 3c41,22 115,98 156,60 14,-14 30,-24 44,-38 11,-10 31,-33 37,-46 30,-59 -52,-118 -102,-127 -8,2 -62,60 -73,70 -15,14 -73,59 -64,78zm-451 264l2 3c41,22 116,98 156,60 14,-14 30,-24 45,-38 11,-10 30,-33 37,-46 30,-59 -52,-118 -102,-127 -8,2 -63,60 -74,70 -14,14 -72,59 -64,78zm3417 984l2 3c48,26 135,116 183,71 17,-16 35,-29 53,-45 13,-12 36,-39 43,-54 35,-69 -61,-139 -119,-149 -10,3 -74,70 -87,83 -17,16 -85,68 -75,91zm536 420l3 3c45,24 128,110 173,67 16,-15 34,-27 50,-43 13,-11 34,-37 42,-51 33,-66 -59,-132 -114,-141 -9,2 -70,66 -82,78 -16,16 -81,65 -72,87zm1117 -2063l2 2c43,24 122,105 165,64 15,-15 32,-26 47,-40 12,-11 33,-36 40,-49 31,-63 -56,-125 -108,-134 -9,2 -67,63 -78,74 -16,15 -77,62 -68,83zm-4689 816c16,-49 -87,-113 -111,-112 -17,1 -86,97 -122,103 -36,6 -110,-96 -147,-67 -35,28 -78,79 -115,111 -35,32 10,36 35,51 18,12 51,46 66,49 53,14 102,-60 135,-87 42,-35 104,73 146,66 22,-4 105,-91 113,-114zm4929 1511c16,-49 -87,-113 -112,-112 -16,1 -86,97 -121,103 -36,6 -110,-96 -147,-67 -35,28 -79,79 -115,111 -36,32 10,36 34,51 18,12 52,46 67,49 53,14 101,-60 135,-87 42,-35 103,73 145,66 23,-4 106,-91 114,-114zm2018 -1631c17,-49 -86,-112 -111,-112 -16,1 -86,98 -122,104 -35,6 -110,-97 -146,-68 -36,28 -79,79 -116,112 -35,31 11,35 35,51 18,11 52,45 66,49 53,13 102,-60 136,-88 41,-34 103,73 145,66 22,-3 106,-91 113,-114zm-68 990l3 3c43,25 123,114 166,69 15,-15 32,-28 48,-44 12,-11 33,-38 40,-53 32,-68 -56,-136 -109,-146 -9,2 -67,69 -79,81 -16,16 -77,67 -69,90zm1388 478c16,-49 -87,-113 -111,-112 -16,1 -86,97 -122,103 -36,6 -110,-97 -146,-67 -36,28 -79,79 -116,111 -35,32 11,36 35,51 18,12 52,46 66,49 53,13 102,-60 136,-87 41,-35 103,73 145,66 22,-4 105,-91 113,-114zm1561 -1770c16,-49 -87,-113 -112,-112 -16,0 -86,97 -121,103 -36,6 -110,-97 -147,-68 -35,28 -79,79 -115,112 -36,32 10,36 34,51 18,11 52,45 67,49 53,13 101,-60 135,-88 42,-34 103,74 145,67 23,-4 106,-91 114,-114zm131 565l3 2c40,22 115,99 155,60 14,-13 30,-24 45,-37 11,-11 31,-34 37,-47 30,-59 -52,-118 -102,-126 -8,2 -62,59 -73,70 -15,14 -73,58 -65,78zm-12741 1121c15,18 44,16 65,14 82,-9 138,-73 180,-138 43,-65 78,-175 90,-252l16 -127c0,-31 3,-16 3,-32 0,-74 6,-154 5,-227 0,-8 5,-121 -4,-131 -15,-19 -21,25 -27,44 -32,100 -53,122 -53,229 0,57 6,117 -5,174 -13,63 -5,50 -36,114 -77,161 -207,231 -234,272 -10,17 -15,43 0,60zm5 167c26,6 188,-98 245,-110 110,-23 174,36 286,-72 64,-61 112,-148 143,-230 21,-54 79,-267 55,-312 -10,7 -90,207 -124,248 -65,80 -93,120 -179,184 -71,52 -138,100 -214,146 -38,24 -207,111 -212,146zm1560 -490c15,18 44,16 65,14 82,-9 138,-73 180,-138 43,-65 79,-175 90,-252l16 -127c0,-31 3,-16 3,-32 0,-74 6,-154 5,-227 0,-8 5,-121 -3,-131 -16,-19 -21,25 -27,44 -33,100 -54,122 -54,229 1,57 7,117 -5,174 -13,63 -5,50 -36,114 -77,161 -207,231 -234,272 -10,17 -15,43 0,60zm792 420c15,17 44,16 65,13 82,-9 138,-73 180,-137 43,-66 79,-176 90,-252l16 -128c0,-31 3,-16 3,-32 0,-74 6,-154 5,-227 0,-8 5,-121 -4,-131 -15,-19 -20,26 -27,44 -32,100 -53,122 -53,229 0,58 6,117 -5,175 -13,62 -5,49 -36,113 -77,161 -207,231 -234,273 -10,16 -15,42 0,60zm741 -497c-6,35 -17,78 -34,130 -17,52 -40,104 -69,156 -29,51 -65,98 -107,141 -43,42 -93,0 -149,17 -5,1 -132,129 -129,54 0,-16 55,-35 87,-63 26,-23 52,-43 77,-64 26,-21 51,-43 78,-65 53,-45 85,-76 97,-92 12,-18 17,-38 16,-59 0,-12 -3,-26 -10,-43 -7,-16 -16,-33 -28,-49 -12,-17 -26,-33 -42,-49 -17,-16 -35,-30 -55,-42 86,-182 134,-271 143,-265 96,47 138,145 125,293zm1284 403c15,18 44,16 65,14 82,-9 138,-73 180,-138 43,-65 78,-175 90,-252l16 -127c0,-31 3,-16 3,-32 0,-74 6,-154 5,-227 0,-8 5,-121 -4,-131 -15,-19 -21,25 -27,44 -32,100 -53,122 -53,229 0,57 6,117 -5,174 -13,63 -5,50 -36,114 -77,161 -207,231 -234,272 -10,17 -15,43 0,60zm2391 44c15,17 44,16 65,14 82,-10 138,-73 181,-138 42,-66 78,-176 89,-252l16 -128c0,-31 3,-15 3,-32 0,-74 6,-154 6,-226 -1,-9 5,-121 -4,-132 -16,-18 -21,26 -27,45 -33,99 -54,121 -54,228 1,58 7,118 -5,175 -13,62 -5,49 -36,114 -77,161 -207,231 -233,272 -11,16 -16,42 -1,60zm2042 46c15,18 44,16 65,14 82,-9 138,-73 181,-138 42,-65 78,-175 89,-252l16 -127c0,-31 3,-16 3,-32 0,-74 6,-154 5,-227 0,-8 6,-121 -3,-131 -16,-19 -21,26 -27,44 -33,100 -54,122 -54,229 1,58 7,117 -5,175 -13,62 -5,49 -36,113 -77,161 -207,231 -234,272 -10,17 -15,43 0,60zm4773 -973l2 2c41,22 115,99 156,60 14,-13 30,-24 44,-38 11,-10 31,-33 37,-46 30,-59 -52,-118 -101,-127 -9,2 -63,60 -74,71 -15,14 -72,58 -64,78zm-1105 1010c26,5 189,-99 245,-110 111,-24 174,36 286,-72 64,-61 112,-148 143,-230 21,-55 80,-267 55,-312 -10,6 -90,206 -124,248 -65,80 -93,120 -179,183 -71,53 -137,100 -213,147 -39,23 -208,111 -213,146zm982 -1292c24,21 19,8 33,27 42,61 -17,152 -24,203 25,-3 23,-16 34,-37 28,-54 64,-115 73,-182 8,-55 -11,-103 -60,-115l-56 104zm-2709 1468c-10,18 -8,32 -4,49 3,15 4,13 9,26l2 4c0,1 1,1 1,2l8 29c4,13 7,22 8,36 2,26 -14,55 -38,68 -36,20 -51,10 -66,36 12,6 11,5 22,2l36 -17c0,0 1,0 2,-1l40 -27c65,-50 101,-97 65,-187 -3,-8 -3,-14 -6,-22 -5,-16 -7,-18 1,-45 -19,-1 -12,-4 -31,7l-8 5c-16,9 -32,20 -41,35zm1721 -2372l-18 -27c-34,23 -20,45 -73,50 -27,3 -62,-14 -65,-50 -5,-65 78,-125 72,-152 -57,6 -196,271 -61,310 84,25 93,-38 134,-37 18,1 34,0 53,-11 58,-35 73,-141 53,-169 -23,12 -11,32 -30,56 -20,25 -39,32 -65,30zm-4711 1680c-17,95 -59,180 -127,255 -64,69 -126,104 -184,104 -21,0 -38,-5 -52,-14 -18,-12 -38,-18 -58,-18 -21,0 -49,12 -86,35 -40,27 -76,57 -108,92 -33,37 -52,55 -59,55 -7,0 -10,-4 -10,-14 0,-34 51,-112 153,-234 100,-123 193,-184 277,-184 23,0 43,6 62,18 13,6 25,10 36,10 42,0 84,-46 127,-137 7,-16 15,-24 21,-24 11,0 14,18 8,56zm416 -63c-6,34 -17,77 -34,129 -17,53 -40,105 -69,156 -30,52 -65,99 -108,141 -42,42 -92,1 -148,17 -5,2 -133,129 -129,54 0,-15 54,-35 87,-63 26,-22 52,-42 77,-64 25,-21 51,-43 78,-65 53,-45 85,-75 97,-91 12,-19 17,-39 16,-60 0,-12 -4,-26 -10,-42 -7,-17 -16,-33 -28,-50 -12,-17 -26,-33 -43,-49 -16,-15 -34,-29 -54,-41 86,-183 133,-271 143,-266 96,48 138,145 125,294zm279 477l-3 0 -3 0 0 0c-148,-2 -222,-89 -222,-261 8,-133 32,-259 72,-381 41,-120 74,-180 101,-179 14,3 15,27 2,72 -35,123 -52,215 -52,277 0,64 14,113 41,148 27,35 75,52 144,53l0 0c54,-1 111,-15 172,-44 64,-29 113,-72 147,-129 -83,33 -157,50 -222,52 -69,2 -101,-15 -97,-54 14,-108 119,-224 193,-299 59,-60 122,-106 188,-139 79,-41 169,-87 268,-138 100,-51 211,-109 333,-173 9,-7 17,-10 25,-10 4,0 6,2 6,8 0,17 -23,59 -71,126 -32,44 -64,74 -97,90 -162,80 -293,148 -394,201 -101,54 -173,94 -217,120 -38,24 -67,47 -84,68 -17,21 -30,41 -39,60 1,2 3,3 4,5 43,0 102,-9 176,-26 39,-9 70,-16 94,-20 25,-4 42,-6 51,-8 20,-2 30,3 30,17 0,14 -15,38 -44,71 -18,21 -39,53 -60,97 -22,43 -46,85 -71,125 -63,99 -128,169 -194,210 -64,40 -123,60 -177,61l0 0zm5034 18c-87,180 -206,332 -357,457 -178,146 -363,220 -555,220 -118,0 -211,-39 -280,-115 -70,-78 -105,-183 -105,-316 0,-121 31,-256 93,-402 60,-140 162,-277 308,-409 -62,-26 -93,-57 -93,-91 0,-5 0,-11 2,-16 1,-5 3,-11 6,-18 34,-83 79,-157 134,-220 68,-78 131,-117 191,-117 17,0 36,5 57,14 27,14 40,36 40,63 0,20 -6,38 -18,55 -12,16 -25,25 -39,25 -8,0 -15,-2 -20,-6 -23,-15 -48,-22 -76,-22 -51,0 -91,23 -119,69 -2,6 -4,10 -4,12 0,19 13,39 38,60 32,24 69,35 113,35 48,0 101,-15 159,-45 31,-16 54,-24 67,-24 9,0 14,3 14,10 0,13 -12,30 -36,51 -13,14 -27,25 -42,35 -15,10 -32,20 -51,31 -50,24 -91,45 -124,63 -32,19 -58,33 -76,44 -48,30 -91,62 -129,95 -38,33 -73,69 -103,107 -103,130 -155,257 -155,381 0,103 36,187 109,250 74,66 176,99 306,99 144,0 287,-41 428,-123 124,-72 221,-161 292,-266 1,-2 3,-5 5,-8 -117,-18 -175,-104 -175,-257 8,-133 32,-259 71,-381 41,-120 75,-180 102,-179 14,3 15,27 2,72 -35,123 -52,215 -52,277 0,64 14,113 41,148 27,35 76,53 147,53 40,0 80,-9 119,-28 35,-18 52,-34 52,-46 0,-14 -7,-27 -22,-37 -6,-6 -14,-10 -24,-12 -9,-3 -17,-3 -25,0 -30,21 -54,32 -74,32 -12,0 -23,-6 -35,-18 -11,-12 -14,-23 -10,-34 26,-70 46,-124 60,-163 14,-38 23,-62 27,-71 17,-40 38,-60 63,-60 37,0 69,16 96,46 34,37 51,89 51,155 0,79 -17,157 -52,233 -36,76 -82,140 -140,191 -62,56 -119,83 -169,83 -9,0 -18,0 -27,0 -1,5 -3,11 -6,18zm-13365 -1059c119,-91 244,-175 377,-252 132,-76 274,-152 426,-228 194,-95 379,-174 553,-238 8,-1 12,4 12,16 0,27 -13,70 -39,129 -28,62 -53,97 -76,105 -159,69 -315,140 -469,213 -154,74 -307,156 -459,247 -34,21 -68,42 -101,63 -33,20 -66,41 -97,62 -97,64 -187,127 -271,190 -84,63 -158,124 -223,185 -288,271 -433,523 -433,756 0,65 10,114 28,147 20,39 60,81 119,124 8,8 12,17 12,26 0,10 -15,58 -46,145 -17,46 -31,69 -41,69 -8,0 -17,-5 -28,-15 -78,-70 -117,-184 -117,-342 0,-142 34,-298 103,-468 38,-91 84,-179 136,-265 52,-86 113,-171 181,-254 56,-66 120,-133 194,-202 73,-68 159,-139 259,-213zm1431 88c29,64 44,122 44,175 0,66 -30,131 -90,194 -10,12 -23,18 -37,18 -16,0 -32,-2 -46,-6 -18,-5 -38,-7 -57,-5 -16,51 -29,98 -40,140 -13,48 -22,90 -27,127 -10,71 7,142 49,210 57,94 166,141 326,141 80,0 165,-21 253,-63 89,-43 172,-115 248,-217 78,-101 126,-202 143,-301 19,-100 26,-202 22,-303 0,-60 9,-100 28,-119 18,-20 35,-30 51,-30 14,1 30,3 49,5 19,2 39,2 59,1 21,-2 41,-6 60,-12 19,-7 35,-18 47,-34 5,-6 9,-9 11,-9 3,1 8,3 14,5 6,4 16,5 30,2 15,-2 31,-14 50,-34 19,-21 32,-31 37,-29 16,9 35,3 56,-18l0 0c21,-23 32,-56 32,-99 0,-11 -1,-23 -1,-36 -1,-13 -2,-27 -3,-42 -4,-34 27,-117 95,-248 8,-18 14,-27 18,-27 4,0 7,14 10,41 2,25 5,48 7,69 2,20 3,39 3,56 0,70 -13,141 -39,213 -26,73 -67,138 -122,198 -11,14 -24,23 -41,26 -16,2 -27,6 -31,10 -22,26 -49,43 -81,51 -32,8 -63,24 -95,48 -32,23 -73,35 -125,35 -15,0 -24,10 -28,30 -4,20 -6,46 -8,79 -34,291 -137,539 -309,742 -173,206 -346,310 -518,310 -124,0 -221,-36 -289,-107 -69,-72 -103,-174 -103,-306 0,-75 13,-167 41,-274 24,-88 50,-163 79,-224 -13,4 -26,10 -38,18 -25,17 -47,40 -65,70 -35,56 -80,108 -135,155 -13,29 -28,57 -44,84 -30,81 -80,166 -140,224 -113,108 -176,48 -286,71 -57,12 -220,116 -246,110 5,-34 174,-122 213,-146 76,-46 142,-94 213,-146 84,-62 113,-101 175,-178 -101,-1 -151,-32 -151,-95 -3,-19 12,-57 43,-115 17,-31 33,-57 46,-81 13,-23 25,-42 36,-58 13,-25 30,-40 52,-45 51,-10 90,23 114,65 28,49 27,104 19,158 47,-52 88,-112 124,-172 49,-75 105,-126 169,-151 11,-24 24,-48 40,-74 15,-26 33,-54 53,-84 9,-14 16,-20 20,-20 3,0 8,9 16,27zm957 -960c-41,152 -123,284 -246,396 -123,111 -251,167 -383,167 -22,0 -44,-3 -65,-7 -21,-5 -42,-10 -61,-15 -19,-5 -37,-10 -53,-14 -17,-4 -32,-5 -45,-4 -24,1 -51,12 -81,32 -28,18 -46,28 -54,28 -8,0 -12,-3 -12,-8 3,-25 29,-65 80,-119 103,-115 193,-173 269,-173 14,0 27,4 41,11 14,7 32,14 55,19 22,5 50,7 83,5 33,-2 75,-12 127,-29 128,-40 233,-134 315,-284 15,-29 24,-41 29,-35 5,5 5,15 1,30zm2854 1329c-18,84 -35,128 -54,132 -40,7 -90,30 -151,70 -66,44 -125,92 -176,145 -72,79 -142,158 -211,236 -70,77 -140,155 -212,234 -96,106 -189,202 -277,289 -89,87 -175,164 -258,233 -402,334 -830,501 -1285,501 -76,0 -147,-4 -214,-13 -66,-8 -129,-21 -189,-38 -118,-32 -176,-71 -176,-115 0,-10 3,-20 9,-29 12,-17 120,-28 324,-33 262,-7 490,-35 686,-83 311,-77 592,-210 843,-400 173,-130 399,-346 676,-648 123,-134 233,-245 328,-331 96,-87 180,-151 251,-192 22,-13 40,-20 56,-20 22,0 34,13 34,38 0,6 -2,14 -4,24zm433 -367c-8,99 -47,196 -117,290 -7,10 -16,27 -29,49 -12,23 -28,53 -46,90 -35,71 -52,129 -52,174 0,45 20,81 60,107 9,-14 20,-31 32,-50 13,-19 26,-40 41,-63 36,15 54,45 54,91 0,47 -20,110 -60,191 -40,83 -93,123 -159,121 -64,-2 -97,-46 -97,-135 0,-86 20,-182 60,-288 21,-53 40,-99 58,-138 18,-40 35,-73 51,-100 -78,-38 -117,-113 -117,-224 0,-112 25,-249 77,-410 53,-160 93,-236 119,-226 3,0 4,6 4,19 0,7 -3,24 -8,51 -5,27 -13,65 -24,114 -10,49 -19,92 -25,128 -7,36 -12,67 -14,92 -4,48 6,86 30,114 25,29 51,44 79,45 27,0 47,-10 57,-30 9,-20 17,-30 24,-30 1,0 2,6 2,18z"/>
  <path class="fil1" d="M24232 2002c-22,0 -40,3 -56,7 -16,5 -28,12 -35,22 6,9 18,15 38,19 20,3 50,4 91,4 22,0 46,0 73,0 27,0 55,-1 84,-2 29,0 699,-1 728,-2 29,-2 56,-3 81,-5l14 24 -71 184c-22,2 -46,4 -71,4 -26,1 -694,2 -720,3 -27,1 -52,2 -77,2 -24,1 -46,1 -65,1 -81,0 -139,-16 -175,-47 -36,-31 -53,-81 -53,-147 0,-42 6,-81 20,-118 13,-36 31,-68 53,-96 22,-27 48,-49 77,-65 29,-16 60,-24 92,-24l99 0 0 236 -127 0zm127 0c-12,0 -19,-9 -23,-29 -3,-19 -5,-49 -5,-89 0,-40 2,-70 5,-90 4,-19 11,-28 23,-28 34,0 63,-1 86,-1 23,-1 43,-3 59,-6 -2,-8 -6,-17 -10,-29 -5,-12 -10,-24 -15,-36 -5,-13 -11,-25 -17,-38 -6,-12 -12,-23 -17,-32l143 -95 19 7c7,19 13,38 19,57 5,19 10,38 13,57 3,18 6,36 8,52 2,17 3,31 3,45 0,26 -3,51 -9,76 -6,25 -14,47 -23,68 -10,20 -21,37 -33,52 -12,15 -24,25 -35,31 -8,4 -18,8 -29,12 -10,3 -23,6 -38,9 -15,2 -33,4 -53,5 -20,2 -44,2 -71,2zm153 -511l-95 -76 76 -104 19 0 95 76 -76 104 -19 0zm414 511c-39,0 -72,-4 -99,-12 -27,-7 -48,-21 -65,-40 -16,-19 -28,-44 -35,-76 -7,-31 -10,-71 -10,-118l0 -151c0,-21 -1,-38 -2,-53 -2,-16 -4,-30 -6,-43 -3,-14 -7,-28 -12,-42 -5,-14 -12,-29 -18,-47l143 -118c12,21 21,42 28,62 7,20 12,39 16,59 3,20 5,40 6,60 1,21 2,42 2,65l0 208c2,3 6,5 11,6 4,1 10,2 15,3 5,0 10,1 15,1 5,0 9,0 11,0l0 236zm462 0c-23,0 -43,-4 -61,-12 -18,-9 -33,-25 -47,-49 -9,15 -16,26 -23,33 -7,8 -13,12 -17,14 -7,4 -18,7 -33,10 -14,3 -28,4 -43,4 -29,0 -52,-4 -69,-12 -17,-9 -31,-25 -43,-49 -9,14 -17,25 -24,31 -6,7 -13,12 -21,16 -19,10 -46,14 -81,14 -12,0 -20,-9 -23,-29 -4,-19 -5,-49 -5,-89 0,-40 1,-70 5,-90 3,-19 11,-28 23,-28 6,0 17,-1 31,-1 14,0 27,-2 39,-5l25 -118 115 0 0 62c0,21 3,37 9,47 6,10 17,15 33,15 6,0 11,-1 18,-1 7,0 14,-2 21,-4l23 -114 115 0 0 57c0,21 2,37 7,47 5,10 16,15 35,15 6,0 14,-1 25,-1 12,-1 23,-3 34,-5 -1,-8 -4,-19 -8,-31 -3,-12 -7,-25 -12,-39 -4,-13 -9,-27 -14,-40 -5,-13 -10,-25 -15,-36l133 -85 19 7c6,19 11,38 16,57 4,19 8,38 10,57 3,18 4,36 6,52 1,17 2,31 2,45 0,26 -3,51 -9,77 -6,25 -14,49 -23,70 -9,21 -20,39 -31,54 -11,15 -22,25 -33,31 -14,7 -30,12 -47,17 -17,4 -38,6 -62,6zm347 -71c-6,-21 -18,-51 -34,-88 -16,-37 -34,-77 -56,-120l152 -99 24 7c8,21 16,44 23,68 6,25 12,50 16,74 5,25 8,48 10,71 2,23 4,42 4,59 0,55 -7,103 -21,144 -14,40 -31,74 -49,100 -19,27 -38,46 -57,59 -19,12 -34,19 -45,19 -4,0 -9,-1 -15,-2 -6,-1 -15,-2 -29,-5 -14,-3 -32,-7 -56,-13 -24,-6 -56,-13 -95,-23l0 -85c26,-12 51,-25 74,-39 24,-15 45,-29 65,-44 20,-15 37,-29 52,-43 16,-15 28,-28 37,-40zm320 -75c-27,-19 -47,-42 -59,-67 -12,-26 -18,-54 -18,-85 0,-37 8,-70 23,-100 15,-31 34,-57 56,-78 22,-21 45,-38 70,-50 25,-12 47,-18 66,-18 16,0 36,9 60,26 23,17 49,40 78,69l-77 118c-16,-10 -31,-17 -44,-24 -13,-6 -22,-9 -27,-9 -6,0 -12,1 -20,4 -8,3 -16,7 -25,11 -8,5 -16,11 -23,17 -7,6 -13,13 -18,20 3,6 7,11 13,17 6,6 13,11 21,15 7,4 15,8 24,11 9,3 16,4 23,4 17,0 42,-5 75,-16 33,-11 73,-26 121,-45l14 14 -10 199c-23,5 -47,11 -74,19 -27,7 -54,16 -80,25 -26,9 -50,18 -71,28 -22,10 -39,19 -51,27l0 10c0,21 10,36 30,44 20,8 53,12 99,12 17,0 33,0 48,0 14,0 29,0 44,0 14,0 31,-1 49,-2 17,0 39,-1 63,-2l10 19 -57 189c-43,7 -80,11 -111,12 -31,2 -56,2 -75,2 -34,0 -66,-3 -95,-11 -29,-7 -53,-19 -73,-37 -21,-18 -37,-42 -48,-72 -11,-30 -17,-67 -17,-112l0 -23c0,-10 0,-20 1,-31 1,-11 4,-23 10,-36 5,-13 14,-27 25,-43 11,-15 28,-33 50,-51zm680 -251c0,-21 0,-38 -2,-53 -1,-16 -3,-30 -6,-43 -3,-14 -7,-28 -12,-42 -5,-14 -11,-29 -18,-47l144 -118c11,21 21,42 28,62 7,20 12,39 15,59 4,20 6,40 7,60 1,21 1,42 1,65l0 208c3,3 7,5 11,6 5,1 10,2 16,3 5,0 10,1 15,1 5,0 8,0 11,0l0 236c-52,0 -93,-7 -123,-21 -31,-14 -53,-39 -67,-74 -16,25 -39,47 -69,66 -29,20 -65,39 -108,58l-114 -142 5 -24c16,-6 33,-12 49,-19 16,-8 32,-15 48,-23 -4,-20 -9,-42 -15,-65 -7,-24 -15,-50 -25,-78 -10,-28 -22,-59 -36,-92 -14,-34 -31,-71 -50,-111l133 -114c20,46 37,86 50,121 14,35 25,66 33,94 9,28 14,52 18,73 3,21 5,40 5,57 0,11 0,20 -2,30 -1,9 -3,18 -4,27 19,-13 34,-24 45,-34 12,-10 17,-17 17,-22l0 -104zm210 397c-12,0 -20,-9 -23,-29 -4,-19 -6,-49 -6,-89 0,-40 2,-70 6,-90 3,-19 11,-28 23,-28l44 0c4,-9 8,-17 11,-23 3,-6 6,-11 7,-15 2,-5 3,-9 4,-12 0,-4 1,-8 1,-12 0,-13 -1,-29 -1,-48 -1,-20 -2,-37 -3,-51 -2,-22 -3,-40 -4,-56 -1,-15 -2,-30 -5,-44 -2,-14 -6,-27 -11,-41 -5,-13 -11,-28 -19,-44l143 -118c12,22 21,44 27,64 6,19 11,39 14,59 3,19 5,39 5,59 1,20 1,41 1,64 0,12 -1,24 -2,35 -1,11 -4,22 -7,32 34,-32 65,-56 92,-74 27,-17 45,-26 55,-26 23,0 44,6 64,19 20,12 38,29 53,49 16,20 28,43 36,69 9,27 14,53 14,80 0,24 -3,49 -9,75 -6,26 -14,50 -24,73 -9,23 -20,43 -31,60 -12,17 -24,28 -36,34 -24,12 -53,20 -86,23 -34,4 -73,5 -119,5l-214 0zm309 -307c-7,0 -21,6 -42,19 -21,12 -51,32 -91,60 11,1 24,1 39,1 14,0 30,0 47,0 35,0 62,-1 79,-2 17,-1 30,-5 40,-12 -7,-17 -17,-32 -31,-46 -13,-13 -27,-20 -41,-20zm286 298l-14 -388c-1,-22 -2,-40 -3,-55 -1,-15 -2,-30 -4,-43 -3,-13 -6,-27 -10,-40 -4,-14 -10,-29 -17,-47l144 -118c12,21 21,42 28,62 7,20 12,39 16,59 3,20 5,40 6,60 1,21 2,42 2,65l0 397 -129 57 -19 -9zm409 9c-22,0 -43,-2 -62,-8 -19,-5 -36,-14 -50,-25 -14,-12 -25,-27 -33,-45 -8,-18 -12,-39 -12,-64 0,-17 3,-39 7,-64 4,-25 10,-52 18,-82 8,-30 17,-62 27,-96 11,-33 22,-68 34,-103l24 -19c91,24 158,57 201,100 44,43 65,98 65,165 0,18 -1,36 -4,54 -3,19 -8,37 -13,53 -5,17 -10,32 -17,46 -6,13 -12,24 -18,31 -8,11 -19,20 -31,27 -13,8 -27,14 -42,18 -15,4 -30,8 -46,9 -17,2 -32,3 -48,3zm-42 -232c3,3 11,6 22,7 11,2 23,3 35,3 9,0 21,-1 36,-1 15,-1 28,-3 40,-6 -10,-35 -48,-59 -114,-74l-19 71zm538 232c-40,0 -73,-4 -99,-12 -27,-7 -49,-21 -65,-40 -17,-19 -28,-44 -35,-76 -7,-31 -11,-71 -11,-118l0 -151c0,-21 0,-38 -2,-53 -1,-16 -3,-30 -6,-43 -3,-14 -7,-28 -12,-42 -5,-14 -11,-29 -18,-47l144 -118c11,21 20,42 27,62 7,20 13,39 16,59 4,20 6,40 7,60 1,21 1,42 1,65l0 208c3,3 6,5 11,6 5,1 10,2 15,3 6,0 11,1 16,1 4,0 8,0 11,0l0 236zm233 -284c-69,0 -121,-8 -154,-26 -34,-17 -51,-50 -51,-97 0,-26 6,-51 18,-75 12,-24 27,-47 46,-68 18,-21 40,-40 64,-57 24,-17 49,-32 74,-45 25,-12 49,-22 73,-28 24,-7 45,-11 63,-11 10,0 21,3 33,10 12,6 32,18 58,37l-62 133c-10,-5 -17,-9 -23,-11 -5,-2 -10,-3 -15,-3 -14,0 -29,2 -46,5 -18,4 -36,9 -54,16 -18,6 -35,13 -52,21 -17,8 -31,16 -43,24 0,4 0,7 1,9 2,1 5,3 10,4 6,1 14,1 25,1 11,0 25,0 44,0l310 0c34,0 63,7 88,22 24,14 43,31 59,51 15,20 26,42 33,65 7,23 10,43 10,61l0 3c7,3 15,5 24,6 8,0 18,1 29,1l0 236c-22,0 -43,-4 -63,-12 -19,-9 -35,-26 -48,-50 -7,9 -14,16 -21,23 -7,7 -14,12 -21,16 -7,4 -16,8 -26,11 -10,2 -23,5 -37,7 -15,2 -33,3 -53,4 -21,1 -45,1 -74,1l-452 0c-12,0 -20,-9 -24,-29 -3,-19 -5,-49 -5,-89 0,-40 2,-70 5,-90 4,-19 12,-28 24,-28l457 0c28,0 55,-1 80,-1 25,0 44,-1 58,-2 -10,-30 -26,-45 -48,-45l-314 0zm48 -450c-39,19 -78,42 -118,67 -40,25 -77,57 -111,94l-14 -4 -15 -67c13,-13 27,-28 43,-42 17,-15 34,-29 53,-42 18,-13 37,-26 56,-37 19,-12 37,-22 53,-30l53 61zm514 734c-12,0 -20,-9 -24,-29 -3,-19 -5,-49 -5,-89 0,-40 2,-70 5,-90 4,-19 12,-28 24,-28 33,0 62,-1 85,-1 23,-1 43,-3 60,-6 -3,-8 -7,-17 -11,-29 -4,-12 -9,-24 -15,-36 -5,-13 -11,-25 -17,-38 -6,-12 -11,-23 -17,-32l143 -95 19 7c7,19 14,38 19,57 5,19 10,38 13,57 4,18 6,36 8,52 2,17 3,31 3,45 0,26 -3,51 -9,76 -6,25 -14,47 -23,68 -10,20 -20,37 -33,52 -12,15 -23,25 -35,31 -8,4 -18,8 -28,12 -11,3 -24,6 -39,9 -15,2 -32,4 -53,5 -20,2 -44,2 -70,2zm238 133l-76 104 -19 0 -82 -73 -52 73 -19 0 -95 -76 76 -104 19 0 81 72 53 -72 19 0 95 76zm328 -133c-39,0 -72,-4 -99,-12 -26,-7 -48,-21 -64,-40 -17,-19 -29,-44 -36,-76 -7,-31 -10,-71 -10,-118l0 -151c0,-21 -1,-38 -2,-53 -1,-16 -3,-30 -6,-43 -3,-14 -7,-28 -12,-42 -5,-14 -11,-29 -18,-47l144 -118c11,21 20,42 27,62 7,20 12,39 16,59 3,20 6,40 7,60 1,21 1,42 1,65l0 208c3,3 6,5 11,6 5,1 10,2 15,3 6,0 11,1 15,1 5,0 9,0 11,0l0 236zm0 0c-12,0 -19,-9 -23,-29 -3,-19 -5,-49 -5,-89 0,-40 2,-70 5,-90 4,-19 11,-28 23,-28 34,0 62,-1 86,-1 23,-1 43,-3 59,-6 -2,-8 -6,-17 -10,-29 -5,-12 -10,-24 -15,-36 -6,-13 -11,-25 -17,-38 -6,-12 -12,-23 -17,-32l143 -95 19 7c7,19 13,38 19,57 5,19 9,38 13,57 3,18 6,36 8,52 2,17 3,31 3,45 0,26 -3,51 -9,76 -6,25 -14,47 -24,68 -9,20 -20,37 -32,52 -12,15 -24,25 -35,31 -8,4 -18,8 -29,12 -11,3 -23,6 -38,9 -15,2 -33,4 -53,5 -20,2 -44,2 -71,2zm-28 57l19 0 80 71 53 -71 19 0 95 76 -76 95 -19 0 -80 -68 -53 68 -19 0 -95 -71 76 -100zm90 166l19 0 86 71 -71 95 -19 0 -91 -72 76 -94z"/>
  <circle class="fil2" cx="23437" cy="1956" r="134"/>
  <circle class="fil2" cx="15256" cy="1956" r="134"/>
 </g>
</svg>
