<?xml version="1.0" encoding="utf-8"?>
<!-- Generator: Adobe Illustrator 21.1.0, SVG Export Plug-In . SVG Version: 6.00 Build 0)  -->
<svg version="1.1" id="Layer_1" xmlns="http://www.w3.org/2000/svg" xmlns:xlink="http://www.w3.org/1999/xlink" x="0px" y="0px"
	 viewBox="0 0 305.7 102.6" style="enable-background:new 0 0 305.7 102.6;" xml:space="preserve">
<style type="text/css">
	.st0{fill:#FFFFFF;}
</style>
<path id="XMLID_3_" class="st0" d="M114.7,58.9c-0.5-0.4-1-0.7-1.6-1c-0.6-0.3-1.2-0.6-1.8-0.8c-0.5,0.5-0.9,1.1-1.3,1.6
	c-0.4,0.5-0.8,1-1.2,1.6c-0.4,0.5-0.8,1.1-1.3,1.7c-0.4,0.6-0.9,1.2-1.4,1.9c0.6,0.2,1.2,0.4,1.8,0.7c0.6,0.3,1.3,0.6,1.8,1
	c0.6,0.4,1.1,0.7,1.6,1.1c0.5,0.4,0.8,0.7,1,1c0.4-0.3,0.8-0.6,1.3-1.1c0.5-0.5,0.9-0.9,1.3-1.5c0.4-0.5,0.7-1.1,1-1.7
	c0.3-0.6,0.4-1.1,0.4-1.7c0-0.6-0.2-1.1-0.5-1.5C115.6,59.6,115.2,59.2,114.7,58.9z"/>
<path id="XMLID_60_" class="st0" d="M127.6,25.1c-0.6-0.4-1.3-0.8-2.1-1c-0.9-0.3-1.8-0.5-2.8-0.7c-1-0.1-1.9-0.2-2.8-0.2
	c-1.6,0-2.9,0.2-4.1,0.5c-1.1,0.3-2.1,0.8-3,1.5c-0.8,0.6-1.6,1.5-2.2,2.5c-0.6,1-1.2,2.2-1.7,3.6c0.6,0.1,1.1,0.1,1.4-0.2
	c0.3-0.3,0.7-0.7,1.2-1.4c0.4-0.6,1-1.1,1.8-1.4c0.8-0.3,1.6-0.4,2.6-0.4c1,0,2,0.1,3.1,0.4c1.1,0.3,2,0.7,3,1.2
	c-1.3,0.5-2.6,1.2-4.1,1.9c-1.5,0.7-2.8,1.6-4.1,2.6c-1.3,1-2.4,2.2-3.3,3.6c-0.9,1.4-1.5,3-1.7,4.9c0,0,0,0,0,0
	c-0.7,0.2-1.3,0.4-1.8,0.6c-0.6,0.2-1.1,0.5-1.6,0.8c-0.5,0.3-1,0.6-1.4,0.9c-0.5,0.3-1,0.7-1.5,1c-4.3,2.8-8.7,5.4-13.1,7.6
	c-4.4,2.2-8.9,4-13.6,5.5c-4.7,1.5-9.5,2.6-14.6,3.4c-5.1,0.8-10.5,1.2-16.2,1.2c0,0,0,0,0,0c-3.3,0-6.1-0.2-8.4-0.5
	c-2.3-0.3-4.1-0.8-5.3-1.3c0.5-0.7,0.8-1.4,1.1-2c0.3-0.6,0.4-1.2,0.4-1.8c0-1.4-0.5-2.4-1.5-3.1c-1-0.7-2.2-1-3.6-1
	c-1.1,0-2.1,0.2-3.1,0.6c-1,0.4-1.9,0.9-2.7,1.5c-0.8,0.6-1.6,1.3-2.3,2.1c-0.7,0.8-1.2,1.6-1.6,2.5c0.2,0.1,0.4,0.3,0.7,0.4
	c0.3,0.2,0.6,0.1,1-0.1c0.9,0,1.7,0.3,2.3,0.8c0.6,0.6,1,1.2,1.1,2.1c-0.5,0.8-1.2,1.5-2.1,1.8c-0.8,0.4-1.7,0.6-2.7,0.6
	c-0.6,0-1.1-0.1-1.6-0.2c-0.4-0.1-0.8-0.3-1.2-0.4c-0.4-0.1-0.8-0.3-1.2-0.4c-0.4-0.1-1-0.2-1.6-0.2c-1.3,0-2.6,0.4-3.9,1.2
	c-1.3,0.8-2.5,1.9-3.6,3.2c-1.1,1.3-2.1,2.7-3.1,4.2c-0.9,1.5-1.6,3-2.2,4.4c0.5,0.2,0.9,0.1,1.4-0.2c0.5-0.3,0.9-0.7,1.2-1.1
	c0.5-0.7,1-1.3,1.4-1.7c0.4-0.4,0.9-0.8,1.3-1c0.4-0.3,0.8-0.4,1.2-0.5c0.4-0.1,0.8-0.1,1.2-0.1c0.7,0,1.3,0.1,1.7,0.3
	c0.5,0.2,1,0.4,1.4,0.7c0.5,0.2,0.9,0.5,1.5,0.7c0.5,0.2,1.1,0.3,1.8,0.3c1.6,0,3.3-0.5,5-1.5c1.7-1,3.5-2.6,5.5-5
	c1,1.2,2.2,2.1,3.6,2.9c1.4,0.8,2.8,1.4,4.4,1.8c1.6,0.5,3.2,0.8,4.9,1c1.7,0.2,3.4,0.3,5.1,0.3c10.8,0,21.2-1.9,31.2-5.6
	c10-3.8,19.7-9.6,29.2-17.5c0.8-0.6,1.6-1.3,2.5-1.8c0.9-0.6,1.9-0.9,3-0.9c0.9,0,1.8,0.2,2.5,0.5c0.8,0.3,1.5,0.8,2.3,1.3
	c0.2-0.1,0.5-0.4,0.8-0.8c0.4-0.4,0.7-0.9,1.1-1.4c0.4-0.5,0.7-1.1,1-1.7c0.3-0.6,0.4-1.2,0.4-1.8c0-0.5-0.1-0.9-0.3-1.2
	c-0.2-0.4-0.5-0.7-1-0.9c-0.3-0.1-0.5-0.3-0.8-0.6c-0.3-0.2-0.6-0.5-0.9-0.8c-0.3-0.3-0.5-0.6-0.7-1c-0.2-0.4-0.3-0.7-0.3-1.2
	c0,0,0,0,0,0c0-0.6,0.5-1.3,1.4-2c0.9-0.7,2-1.3,3.3-1.9c1.2-0.6,2.5-1.1,3.6-1.6c1.2-0.4,2-0.8,2.5-0.9c0.6-0.2,1.3-0.6,1.9-1.1
	c0.6-0.5,1.1-1,1.6-1.6c0.5-0.6,0.8-1.2,1.1-1.8c0.3-0.6,0.4-1.1,0.4-1.6C128.4,25.9,128.1,25.5,127.6,25.1z"/>
<path id="XMLID_61_" class="st0" d="M135.5,33.2c-0.5-0.4-1-0.7-1.6-1c-0.6-0.3-1.2-0.5-1.8-0.8c-0.5,0.5-0.9,1.1-1.3,1.6
	c-0.4,0.5-0.8,1-1.2,1.6c-0.4,0.5-0.8,1.1-1.3,1.7c-0.4,0.6-0.9,1.2-1.4,1.9c0.6,0.2,1.2,0.4,1.8,0.7c0.6,0.3,1.3,0.6,1.8,1
	c0.6,0.4,1.1,0.7,1.6,1.1c0.5,0.4,0.8,0.7,1,1c0.4-0.3,0.8-0.6,1.3-1.1c0.5-0.5,0.9-0.9,1.3-1.5c0.4-0.5,0.7-1.1,1-1.7
	c0.3-0.6,0.4-1.1,0.4-1.7c0-0.5-0.2-1-0.5-1.5C136.4,34,136,33.6,135.5,33.2z"/>
<path id="XMLID_62_" class="st0" d="M131,51.6c-0.2,0.3-0.3,0.6-0.4,0.9c-0.1,0.3-0.2,0.6-0.2,0.8c-0.2,0.6-0.3,1.2-0.5,1.8
	c-0.2,0.6-0.4,1.2-0.6,1.8c-0.6,1.7-1.3,3.3-2.2,4.7c-0.8,1.4-1.8,2.7-2.8,3.9c-1.1,1.2-2.2,2.3-3.5,3.3c-1.3,1-2.7,2-4.3,3
	c-0.4,0.2-0.7,0.6-1.1,1.1c-0.4,0.5-0.6,1.1-0.6,1.9c0.4-0.1,0.9-0.3,1.5-0.4c0.6-0.2,1.2-0.3,1.8-0.5c0.6-0.2,1.2-0.3,1.8-0.4
	c0.6-0.1,1-0.2,1.4-0.2c1.3,0,2.4-0.4,3.3-1.2c0.9-0.8,1.7-1.8,2.4-3c0.7-1.2,1.2-2.4,1.6-3.7c0.4-1.3,0.8-2.5,1.1-3.5
	c0.4-1.4,0.8-2.8,1.2-4.4c0.4-1.6,0.7-3.2,1.1-4.9c0.1-0.3,0.1-0.7,0.2-1.1c0.1-0.5,0.2-0.8,0.4-1.1c-0.4,0-0.7,0.1-1,0.3
	C131.4,51,131.2,51.3,131,51.6z"/>
<path id="XMLID_63_" class="st0" d="M162,61.8c-0.3-0.1-0.6-0.3-0.9-0.6c-0.4-0.2-0.7-0.5-1-0.8c-0.3-0.3-0.6-0.7-0.8-1
	c-0.2-0.4-0.3-0.8-0.3-1.2l0,0c0-1.1,0.3-2.3,0.9-3.4c0.6-1.1,1.4-2.5,2.2-4c0.3-0.5,0.4-1.1,0.3-1.5c-0.1-0.5-0.3-0.8-0.5-0.9
	c-0.7,0.9-1.5,2-2.3,3.1c-0.8,1.1-1.6,2.3-2.2,3.4c-0.7,1.2-1.2,2.4-1.7,3.5c-0.4,1.2-0.7,2.3-0.7,3.3c-0.5,0.2-1,0.5-1.5,0.9
	c-0.4,0.4-0.9,0.9-1.4,1.3c-0.5,0.5-1.1,0.9-1.8,1.2c-0.7,0.4-1.6,0.5-2.7,0.5c-1.4,0-2.4-0.3-3.1-1c-0.7-0.7-1.3-1.5-1.6-2.4
	c-0.3-0.9-0.5-1.8-0.5-2.8c0-0.9,0-1.7,0-2.2c0,0,0,0,0,0c0,0,0,0,0-0.1c0-1.6,0.1-3.3,0.2-5.1c0.1-1.9,0.3-3.8,0.5-5.8
	c0.2-2,0.4-4,0.6-5.9c0.2-2,0.4-3.8,0.6-5.6c0.2-1.6,0.1-2.5-0.4-2.7c-0.6,1.7-1.3,3.3-2,4.8c-0.7,1.4-1.4,2.9-2.2,4.3
	c-0.2,0.3-0.3,0.7-0.4,1.1c-0.1,0.4-0.2,0.9-0.2,1.5c-0.4,3.1-0.8,6.3-1.1,9.4c-0.3,3.1-0.5,6.2-0.5,9.4c0,0,0,0,0,0
	c0,1.3,0.1,2.7,0.2,4.1c0.2,1.4,0.5,2.8,1,4c0.5,1.2,1.2,2.2,2.1,3c0.9,0.8,2.1,1.2,3.7,1.2c0.9,0,1.8-0.2,2.5-0.5
	c0.7-0.4,1.4-0.8,1.9-1.3c0.6-0.5,1.1-1.1,1.6-1.7s1.1-1.2,1.6-1.7c0.5-0.5,1.1-1,1.8-1.3c0.6-0.4,1.4-0.5,2.2-0.5
	c0.7,0,1.4,0.1,1.9,0.3c0.5,0.2,1.1,0.5,1.8,0.8c0,0,0.2-0.1,0.5-0.4c0.3-0.2,0.6-0.6,0.9-1c0.3-0.4,0.7-0.9,1-1.4
	c0.3-0.5,0.6-1,0.7-1.6c0.1-0.5,0.2-1,0-1.5C162.9,62.5,162.5,62.1,162,61.8z"/>
<path id="XMLID_64_" class="st0" d="M167.7,26.5c0-0.5-0.2-1-0.5-1.5c-0.3-0.5-0.7-0.9-1.2-1.2c-0.5-0.4-1-0.7-1.6-1
	c-0.6-0.3-1.2-0.5-1.8-0.8c-0.5,0.5-0.9,1.1-1.3,1.6c-0.4,0.5-0.8,1-1.2,1.6c-0.4,0.5-0.8,1.1-1.3,1.7c-0.4,0.6-0.9,1.2-1.4,1.9
	c0.6,0.2,1.2,0.4,1.8,0.7c0.6,0.3,1.3,0.6,1.8,1c0.6,0.4,1.1,0.7,1.6,1.1c0.5,0.4,0.8,0.7,1,1c0.4-0.3,0.8-0.6,1.3-1.1
	c0.5-0.5,0.9-0.9,1.3-1.5c0.4-0.5,0.7-1.1,1-1.7C167.5,27.6,167.7,27.1,167.7,26.5z"/>
<path id="XMLID_65_" class="st0" d="M231.5,22.9c0.6,0.3,1.1,0.7,1.5,1c0.4,0.4,0.8,0.7,1,1c0.4-0.2,0.8-0.6,1.2-1
	c0.4-0.4,0.9-0.9,1.3-1.4c0.4-0.5,0.7-1,1-1.6s0.4-1.1,0.4-1.6c0-0.5-0.1-1-0.4-1.4c-0.3-0.4-0.7-0.8-1.1-1.2c-0.5-0.4-1-0.7-1.6-1
	c-0.6-0.3-1.2-0.5-1.7-0.7c-0.4,0.5-0.8,1-1.2,1.5c-0.4,0.5-0.8,1-1.2,1.5c-0.4,0.5-0.8,1-1.2,1.6c-0.4,0.6-0.9,1.2-1.4,1.8
	c0.6,0.2,1.1,0.4,1.8,0.6C230.3,22.2,230.9,22.6,231.5,22.9z"/>
<path id="XMLID_66_" class="st0" d="M256.8,1.7c-0.5-0.4-1-0.7-1.6-1c-0.6-0.3-1.2-0.5-1.7-0.8c-0.9,1.1-1.7,2-2.4,2.9
	c-0.7,0.9-1.5,1.9-2.3,3c-0.1-0.4-0.4-0.8-0.8-1.2c-0.4-0.4-0.8-0.7-1.4-1c-0.5-0.3-1.1-0.6-1.7-0.9c-0.6-0.3-1.2-0.5-1.8-0.7
	c-0.5,0.6-0.9,1.1-1.3,1.6c-0.4,0.5-0.8,1-1.2,1.5c-0.4,0.5-0.8,1-1.2,1.6c-0.4,0.5-0.8,1.1-1.3,1.8c0.4,0.1,0.9,0.3,1.4,0.5
	c0.5,0.2,1,0.5,1.5,0.8c0.5,0.3,1,0.6,1.4,0.9c0.4,0.3,0.8,0.6,1.1,0.9c0.5,0,1-0.2,1.6-0.5c0.6-0.3,1.1-0.8,1.7-1.3s1-1.1,1.3-1.6
	c0.4-0.6,0.6-1.1,0.7-1.6c0.5,0.1,0.9,0.3,1.4,0.5c0.5,0.2,0.9,0.5,1.4,0.8c0.4,0.3,0.8,0.6,1.2,0.8c0.4,0.3,0.6,0.5,0.9,0.7
	c0.5,0,1.1-0.2,1.6-0.5c0.5-0.3,1-0.7,1.5-1.3c0.4-0.5,0.8-1.1,1.1-1.6c0.3-0.6,0.4-1.1,0.4-1.7c0-0.5-0.1-1-0.4-1.4
	C257.7,2.5,257.3,2.1,256.8,1.7z"/>
<path id="XMLID_69_" class="st0" d="M246.2,27.3c-2.3,1.2-4.5,2.6-6.9,4c-2.3,1.5-4.4,3-6.3,4.6c-1.9,1.6-3.4,3.3-4.6,5
	c-1.2,1.7-1.8,3.4-1.8,5.1c0,0,0,0,0,0c0,0.4,0.1,0.7,0.4,1c0.3,0.3,0.8,0.4,1.5,0.4c1.2,0,2.3-0.1,3.3-0.1c0.9-0.1,1.8-0.1,2.6-0.2
	c-0.7,0.8-1.6,1.6-2.5,2.5c-1,0.9-2.1,1.8-3.3,2.6c-1.2,0.9-2.6,1.7-4,2.5c-1.4,0.8-2.9,1.5-4.5,2.1c0,0,0,0,0,0l0,0
	c0.8-1,1.6-2.1,2.3-3.2c0.7-1.1,1.3-2.2,1.8-3.2c0.5-1.1,0.9-2.2,1.1-3.2c0.3-1.1,0.4-2.1,0.4-3c0-1.1-0.2-2-0.7-2.8
	c-0.4-0.8-1.2-1.2-2.2-1.2c-0.8,0-1.6,0.3-2.5,0.8s-1.8,1.2-2.7,2c-0.9,0.8-1.9,1.8-2.8,2.9c-0.9,1.1-1.9,2.2-2.7,3.3
	s-1.7,2.2-2.5,3.3c-0.8,1.1-1.5,2-2,2.8c-0.4-0.1-0.9-0.2-1.3-0.4c-0.5-0.2-1-0.3-1.5-0.3s-1,0.3-1.6,0.8s-1.1,1.2-1.7,2
	c-0.6,0.8-1.3,1.7-2,2.7s-1.5,2-2.4,2.9c-0.9,1-1.9,1.8-2.9,2.7c-1.1,0.8-2.3,1.5-3.7,1.9c0,0,0,0,0,0s0,0,0,0c0.8-1,1.6-2,2.3-3.1
	c0.7-1.1,1.3-2.2,1.8-3.3s0.9-2.2,1.1-3.2c0.3-1.1,0.4-2.1,0.4-3c0-2.3-1-3.5-2.9-3.5c-0.9,0-1.9,0.3-3,1c-1.1,0.6-2.1,1.5-3.2,2.5
	c-1.1,1-2.1,2.1-3.1,3.3c-1,1.2-1.9,2.4-2.8,3.5c-0.8,1.1-1.5,2.1-2.1,3c-0.6,0.9-1,1.5-1.2,1.8c-0.8-0.2-1.5-0.5-2.1-0.7
	c-0.6-0.3-1.3-0.7-2.1-1.3c-0.6,0-1.2,0.3-1.6,0.8c-0.4,0.5-0.9,1.2-1.5,2c-0.6,0.8-1.4,1.7-2.4,2.7c-1,1-2.4,1.9-4.3,2.9
	c-1.8,0.9-3.6,2-5.4,3.4c-1.8,1.3-3.5,2.8-5,4.3c-1.5,1.5-2.7,3.1-3.6,4.8c-0.9,1.7-1.4,3.2-1.4,4.7l0,0l0,0c0,0,0,0,0,0l0,0
	c0,1.5,0.7,2.6,2,3.5c1.4,0.9,3.1,1.6,5.2,2.1c2.1,0.5,4.4,0.9,7,1s5,0.3,7.4,0.3c4.2,0,8.8-0.2,13.7-0.6c4.9-0.4,10-0.9,15.1-1.6
	c5.2-0.7,10.3-1.5,15.5-2.3c5.2-0.9,10.2-1.8,14.9-2.8s9.2-2.1,13.3-3.1c4.1-1.1,7.7-2.1,10.7-3.1c-0.4-0.7-1.1-1.2-2-1.6
	c-0.9-0.4-1.9-0.6-3-0.8c-1.1-0.1-2.3-0.2-3.6-0.2c-1.3,0-2.5,0.1-3.7,0.2s-2.3,0.2-3.3,0.4c-1,0.2-1.8,0.3-2.4,0.4
	c-4.9,0.7-9.9,1.5-15,2.2c-5.2,0.7-10.3,1.3-15.5,1.9c-5.2,0.6-10.2,1-15.2,1.3c-5,0.3-9.8,0.5-14.3,0.5c-1.2,0-2.6,0-4.1-0.1
	c-1.5,0-3-0.1-4.6-0.3c-1.5-0.1-3-0.3-4.4-0.5c-1.4-0.2-2.7-0.5-3.8-0.8c-1.1-0.3-2-0.8-2.7-1.3c-0.7-0.5-1-1.1-1-1.7
	c0.3-0.7,0.9-1.3,1.6-1.9c0.8-0.6,1.6-1,2.4-1.4s1.6-0.7,2.4-1c0.7-0.3,1.3-0.5,1.5-0.6c0.4-0.2,1-0.4,1.6-0.7
	c0.6-0.3,1.3-0.6,2-1.1c0.7-0.5,1.4-1,2.1-1.8c0.7-0.7,1.3-1.6,1.9-2.6c0.2,0,0.4,0.2,0.7,0.5c0.2,0.4,0.6,0.8,1,1.2
	s1.1,0.8,1.9,1.2c0.8,0.4,1.9,0.5,3.2,0.5c1.1,0,2.3-0.2,3.5-0.6c1.2-0.4,2.4-1,3.6-1.7c0.8-0.5,1.6-1,2.3-1.6
	c2.9,0,5.5-0.8,7.8-2.2c2.4-1.5,4.5-3.5,6.5-6.3c0.9,0.7,1.9,1.2,3,1.6c1.1,0.3,2.1,0.5,2.9,0.5c1.1,0,2.3-0.2,3.5-0.6
	s2.4-1,3.6-1.8c0.9-0.6,1.7-1.2,2.6-1.9c1.5,0,2.9-0.3,4.4-0.7c1.6-0.5,3.1-1.1,4.5-1.8c1.4-0.7,2.8-1.6,4-2.5
	c1.2-0.9,2.3-1.8,3.3-2.6c1-0.9,1.8-1.7,2.5-2.4c0.7-0.7,1.2-1.3,1.5-1.6c0.6-0.6,1.3-1.3,2-2c0.7-0.7,1.3-1.2,1.8-1.5
	c0.5-0.4,0.8-0.9,1-1.4c0.1-0.6,0.3-1.1,0.4-1.7c-0.9,0.2-1.9,0.3-2.9,0.4c-1,0.1-2,0.2-3.1,0.3c-1,0.1-2.1,0.1-3.1,0.2
	c-1,0-2,0.1-2.9,0.1c0,0,0,0,0,0c0,0,0,0,0,0c0.6-0.8,1.4-1.6,2.4-2.4c1.1-0.8,2.3-1.6,3.6-2.5c1.3-0.8,2.8-1.6,4.3-2.4
	s3-1.5,4.4-2.1c1.4-0.6,2.8-1.2,4-1.8c1.2-0.5,2.3-1,3.1-1.3c0.8-0.3,1.6-0.9,2.2-1.6c0.6-0.7,1.2-1.6,1.7-2.4
	c0.5-0.9,0.9-1.8,1.2-2.7c0.3-0.9,0.6-1.8,0.7-2.5c-1.1,0.6-2.7,1.3-4.6,2.2C250.6,25,248.5,26.1,246.2,27.3z M183.3,66.8
	c-1.4,0.3-2.6,0.4-3.8,0.2c0.8-1,1.6-2.1,2.4-3.1c0.8-1,1.7-2,2.6-2.8c0.9-0.8,1.7-1.5,2.6-2s1.8-0.8,2.6-0.8c0.9,0,1.6,0.1,2,0.4
	c0.4,0.3,0.7,0.7,0.9,1.2c-0.4,1.1-1.1,2.1-2,3c-1,0.9-2.1,1.7-3.4,2.4C186,66,184.7,66.5,183.3,66.8z M212.9,55.6
	c-1.4,0.3-2.6,0.3-3.8,0.1c0.8-1,1.6-2.1,2.4-3.1s1.7-2,2.6-2.8s1.7-1.5,2.6-2c0.9-0.5,1.8-0.8,2.6-0.8c0.9,0,1.6,0.2,2,0.7
	c0.4,0.4,0.7,0.9,0.9,1.4c-0.4,1.1-1.1,2.1-2,2.9c-1,0.9-2.1,1.6-3.4,2.2S214.3,55.4,212.9,55.6z"/>
<path id="XMLID_73_" class="st0" d="M249,52.4c-0.4-0.6-1-1.1-1.7-1.5c-0.7-0.4-1.4-0.6-2.3-0.6c-0.5,0-0.9,0.2-1.1,0.5
	c-0.2,0.3-0.5,0.8-0.8,1.5c-0.2,0.5-0.4,0.9-0.6,1.3c-0.2,0.4-0.3,0.7-0.5,1.1c-0.2,0.4-0.4,0.8-0.6,1.4c-0.2,0.5-0.6,1.2-0.9,2
	c-0.2,0.4-0.4,0.7-0.5,1.1c-0.2,0.3-0.3,0.6-0.4,0.9s-0.1,0.5-0.1,0.6c0,0.2,0.2,0.2,0.4,0.2c0.2,0,0.4,0,0.5,0
	c-0.9,1.5-1.5,2.9-1.9,4c-0.4,1.1-0.6,2.3-0.6,3.3c0,1.3,0.3,2.3,0.9,3s1.4,1,2.4,1c1.4,0,2.6-0.5,3.8-1.5c1.1-1,2.1-2.2,2.9-3.8
	c0.8-1.5,1.4-3.2,1.8-4.9s0.6-3.5,0.6-5c0-0.9-0.1-1.8-0.3-2.6C249.8,53.8,249.4,53.1,249,52.4z M245.1,67c-0.8,0.4-1.6,0.6-2.4,0.6
	c-0.7,0-1.3-0.2-1.9-0.6c-0.5-0.4-0.8-1-0.8-1.7c0-0.3,0.1-0.6,0.2-1c0.1-0.4,0.3-0.7,0.4-1.1s0.3-0.7,0.5-1.1
	c0.2-0.3,0.4-0.6,0.5-0.9c1.4,0.2,2.5,0.6,3.4,1.2c0.8,0.6,1.4,1.5,1.6,2.6C246.4,65.9,245.9,66.5,245.1,67z"/>
<path id="XMLID_76_" class="st0" d="M275.5,59c0.6,0.4,1.3,0.8,1.9,1c0.7,0.2,1.4,0.3,2.2,0.3c1,0,2-0.4,2.9-1.1
	c0.9-0.8,1.6-1.7,2.2-2.7c0.6-1.1,1.1-2.2,1.5-3.4c0.4-1.2,0.6-2.2,0.7-3c-0.5,0-0.9,0.2-1.1,0.5c-0.2,0.3-0.4,0.8-0.7,1.3
	c-0.2,0.5-0.5,0.9-0.7,1.3c-0.2,0.4-0.5,0.7-0.8,0.9c-0.6,0.4-1.4,0.6-2.3,0.6l0,0c-0.9,0-2-0.2-3.1-0.6c-1.1-0.4-2.3-0.8-3.5-1.3
	c-1.1-0.4-2.2-0.8-3.5-1.2c-1.2-0.4-2.7-0.5-4.4-0.5c-0.7,0-1.5,0-2.3,0.1c-0.8,0.1-1.6,0.2-2.5,0.4c3-2.6,5.9-5,8.8-7.3
	s5.7-4.6,8.6-6.8c2.8-2.2,5.7-4.4,8.6-6.6c2.9-2.2,6-4.5,9.1-6.9c1.1-0.8,2.1-1.8,3.2-2.8c1-1,2-2.1,2.8-3.2
	c0.8-1.1,1.4-2.3,1.9-3.6c0.5-1.3,0.7-2.6,0.7-3.9c-3.8,3.5-7.6,6.7-11.5,9.7c-3.9,3-7.8,6-11.7,8.9c0.4-0.8,1-1.8,2-2.8
	c0.9-1,2-2.1,3.2-3.2c1.2-1.1,2.4-2.1,3.7-3.2c1.3-1,2.4-2,3.5-2.9c0.6-0.6,1.3-1.1,1.9-1.7c0.6-0.6,1.2-1.3,1.6-2
	c0.5-0.8,0.9-1.6,1.2-2.6c0.3-1,0.4-2.2,0.4-3.5c-1.8,1.9-3.7,3.8-5.7,5.6s-3.9,3.5-5.8,5.3c-0.7,0.7-1.6,1.5-2.5,2.4
	c-0.9,0.9-1.8,1.9-2.7,2.9c-0.8,1.1-1.5,2.2-2.1,3.5c-0.6,1.2-0.9,2.5-0.9,3.8c-2.4,1.8-4.8,3.7-7.1,5.5s-4.8,3.8-7.2,5.9
	c-0.3,0.3-0.7,0.6-1.2,1.1c-0.5,0.4-1,0.9-1.5,1.5c-0.5,0.6-1.1,1.1-1.6,1.8c-0.6,0.6-1.1,1.2-1.6,1.8c-0.1,0.1-0.2,0.3-0.4,0.5
	c0.1-1.2,0.2-2.4,0.3-3.6c0.2-1.9,0.4-3.8,0.6-5.7c0.2-1.9,0.4-3.7,0.6-5.3c0.2-1.5,0.1-2.4-0.4-2.5c-0.6,1.7-1.3,3.2-1.9,4.6
	c-0.7,1.4-1.4,2.8-2.1,4.1c-0.2,0.3-0.3,0.7-0.3,1.1c-0.1,0.4-0.1,0.9-0.2,1.4c-0.4,3-0.7,6-1,8.9c-0.3,3-0.4,6-0.4,9c0,0,0,0,0,0
	c0,1.7,0.1,3.4,0.3,5.1s0.6,3.2,1.2,4.6c0.6,1.3,1.4,2.4,2.3,3.3c1,0.8,2.2,1.3,3.7,1.3c1.7,0,3.2-0.5,4.7-1.6
	c1.5-1,2.8-2.3,3.9-3.9c1.1-1.6,2.1-3.3,2.8-5.2C274.7,62.3,275.2,60.6,275.5,59z M270.9,63.8c-0.4,0.6-1,1.1-1.6,1.5
	c-0.6,0.4-1.3,0.7-1.9,1c-0.7,0.2-1.4,0.4-2.1,0.4c-0.7,0-1.5-0.2-2.2-0.5c-0.7-0.3-1.3-0.8-1.9-1.5c-0.5-0.7-1-1.6-1.3-2.7
	c-0.3-1.1-0.5-2.5-0.5-4.1c1-0.5,2-0.9,3.1-1.1c1.1-0.2,2-0.3,2.7-0.3c0.9,0,1.7,0.1,2.5,0.3c0.8,0.2,1.5,0.5,2.2,0.9
	c0.6,0.4,1.1,1,1.4,1.7s0.5,1.6,0.5,2.6C271.6,62.6,271.3,63.2,270.9,63.8z"/>
<path id="XMLID_77_" class="st0" d="M275.2,87c0.5,0,1.1-0.2,1.6-0.5c0.5-0.3,1-0.7,1.5-1.3c0.4-0.5,0.8-1.1,1.1-1.6
	c0.3-0.6,0.4-1.1,0.4-1.7c0-0.5-0.1-1-0.4-1.4c-0.3-0.4-0.7-0.8-1.1-1.2c-0.5-0.4-1-0.7-1.6-1c-0.6-0.3-1.2-0.5-1.7-0.8
	c-0.9,1-1.7,2-2.4,2.9s-1.5,1.9-2.3,3c-0.1-0.4-0.4-0.8-0.8-1.2c-0.4-0.4-0.8-0.7-1.4-1c-0.5-0.3-1.1-0.6-1.7-0.9
	c-0.6-0.3-1.2-0.5-1.8-0.7c-0.5,0.6-0.9,1.1-1.3,1.6c-0.4,0.5-0.8,1-1.2,1.5c-0.4,0.5-0.8,1-1.2,1.6c-0.4,0.5-0.8,1.1-1.3,1.8
	c0.4,0.1,0.9,0.3,1.4,0.5c0.5,0.2,1,0.5,1.5,0.8c0.5,0.3,1,0.6,1.4,1c0.4,0.3,0.8,0.6,1.1,0.9c0.5,0,1-0.2,1.6-0.5
	c0.6-0.3,1.1-0.8,1.7-1.3s1-1.1,1.3-1.6s0.6-1.1,0.7-1.6c0.5,0.1,0.9,0.3,1.4,0.5c0.5,0.2,0.9,0.5,1.4,0.8c0.4,0.3,0.8,0.6,1.2,0.8
	C274.7,86.6,275,86.8,275.2,87z"/>
<path id="XMLID_78_" class="st0" d="M298.8,86c-0.3-0.3-0.7-0.6-1.2-0.9c-0.5-0.3-1-0.6-1.6-0.9s-1.2-0.5-1.8-0.7
	c-0.5,0.6-0.9,1.1-1.3,1.6s-0.8,1-1.2,1.5c-0.4,0.5-0.8,1-1.2,1.6c-0.4,0.5-0.8,1.1-1.3,1.8c0.4,0.1,0.8,0.2,1.3,0.5
	c0.5,0.2,1,0.5,1.5,0.7c0.5,0.3,1,0.6,1.4,0.9c0.4,0.3,0.8,0.6,1.1,0.8c0.5-0.3,1.1-0.6,1.6-1.1c0.5-0.5,1-1,1.5-1.5
	c0.4-0.5,0.8-1.1,1.1-1.6c0.3-0.6,0.4-1.1,0.4-1.6C299.2,86.6,299.1,86.3,298.8,86z"/>
<path id="XMLID_79_" class="st0" d="M287.3,91.9c0.4-0.5,0.8-1.1,1.1-1.6c0.3-0.6,0.4-1.1,0.4-1.6c0-0.3-0.1-0.6-0.4-0.9
	c-0.3-0.3-0.7-0.6-1.2-0.9c-0.5-0.3-1-0.6-1.6-0.9s-1.2-0.5-1.8-0.7c-0.5,0.6-0.9,1.1-1.3,1.6s-0.8,1-1.2,1.5
	c-0.4,0.5-0.8,1-1.2,1.6c-0.4,0.5-0.8,1.1-1.3,1.8c0.4,0.1,0.8,0.2,1.3,0.5c0.5,0.2,1,0.5,1.5,0.7s1,0.6,1.4,0.9
	c0.4,0.3,0.8,0.6,1.1,0.8c0.5-0.3,1.1-0.6,1.6-1.1C286.3,92.9,286.8,92.4,287.3,91.9z"/>
<path id="XMLID_80_" class="st0" d="M292.6,94.9c-0.5-0.3-1-0.6-1.6-0.9s-1.2-0.5-1.8-0.7c-0.5,0.6-0.9,1.1-1.3,1.6
	c-0.4,0.5-0.8,1-1.2,1.5c-0.4,0.5-0.8,1-1.2,1.6c-0.4,0.5-0.8,1.1-1.3,1.8c0.4,0.1,0.8,0.2,1.3,0.5c0.5,0.2,1,0.5,1.5,0.7
	s1,0.6,1.4,0.9c0.4,0.3,0.8,0.6,1.1,0.8c0.5-0.3,1.1-0.6,1.6-1.1c0.5-0.5,1-1,1.5-1.5c0.4-0.5,0.8-1.1,1.1-1.6
	c0.3-0.6,0.4-1.1,0.4-1.6c0-0.3-0.1-0.6-0.4-0.9C293.5,95.5,293.1,95.2,292.6,94.9z"/>
<path id="XMLID_81_" class="st0" d="M287.4,63.9c0.1,1.1,0.3,2.2,0.6,3.2c0.3,1,0.7,1.8,1.3,2.4c0.5,0.6,1.3,1,2.2,1
	c0.8,0,1.5-0.2,2.2-0.7c0.7-0.4,1.3-1,1.9-1.8c0.6-0.7,1.2-1.5,1.7-2.5c0.5-0.9,0.9-1.8,1.3-2.7c0.3-0.9,0.6-1.8,0.8-2.6
	c0.2-0.8,0.3-1.6,0.3-2.2c-0.4-0.1-0.7,0-0.9,0.3c-0.2,0.2-0.4,0.6-0.5,1c-0.2,0.4-0.3,0.7-0.5,1.1c-0.2,0.4-0.4,0.7-0.6,1
	s-0.5,0.5-0.9,0.7c-0.3,0.2-0.7,0.3-1.1,0.3c-1.2,0-2.1-0.6-2.5-1.8s-0.6-2.8-0.6-4.9l0,0l0,0c0-1.5,0.1-3.1,0.2-4.9
	c0.1-1.8,0.3-3.6,0.5-5.5c0.2-1.9,0.4-3.8,0.6-5.7c0.2-1.9,0.4-3.7,0.6-5.3c0.2-1.5,0.1-2.4-0.4-2.5c-0.6,1.7-1.3,3.2-1.9,4.6
	c-0.7,1.4-1.4,2.8-2.1,4.1c-0.2,0.3-0.3,0.7-0.3,1.1c-0.1,0.4-0.1,0.9-0.2,1.4c-0.4,3-0.7,6-1,8.9s-0.4,6-0.4,9l0,0l0,0
	C287.2,61.7,287.3,62.7,287.4,63.9z"/>
</svg>
