<?xml version="1.0" encoding="UTF-8"?>
<svg width="204px" height="154px" viewBox="0 0 204 154" version="1.1" xmlns="http://www.w3.org/2000/svg" xmlns:xlink="http://www.w3.org/1999/xlink">
    <!-- Generator: Sketch 55 (78076) - https://sketchapp.com -->
    <title>pattrn</title>
    <desc>Created with Sketch.</desc>
    <g id="Page-1" stroke="none" stroke-width="1" fill="none" fill-rule="evenodd" opacity="0.696382068">
        <g id="Desktop-HD" transform="translate(-1045.000000, -2464.000000)">
            <g id="BgPattern" transform="translate(-130.000000, -1.000000)">
                <g id="Group-4" transform="translate(100.000000, 2249.000000)">
                    <g id="Group-3" transform="translate(1075.000000, 216.000000)">
                        <g id="pattrn">
                            <rect id="Rectangle" fill-opacity="0.01" fill="#D8D8D8" x="0" y="0" width="204" height="154"></rect>
                            <circle id="Oval" fill="#3C40A8" cx="177" cy="27" r="2"></circle>
                            <circle id="Oval" fill="#3C40A8" cx="177" cy="77" r="2"></circle>
                            <circle id="Oval" fill="#3C40A8" cx="177" cy="127" r="2"></circle>
                            <circle id="Oval" fill="#3C40A8" cx="127" cy="27" r="2"></circle>
                            <circle id="Oval" fill="#3C40A8" cx="127" cy="77" r="2"></circle>
                            <circle id="Oval" fill="#3C40A8" cx="127" cy="127" r="2"></circle>
                            <circle id="Oval" fill="#3C40A8" cx="77" cy="27" r="2"></circle>
                            <circle id="Oval" fill="#3C40A8" cx="77" cy="77" r="2"></circle>
                            <circle id="Oval" fill="#3C40A8" cx="77" cy="127" r="2"></circle>
                            <circle id="Oval" fill="#3C40A8" cx="27" cy="27" r="2"></circle>
                            <circle id="Oval" fill="#3C40A8" cx="27" cy="77" r="2"></circle>
                            <circle id="Oval" fill="#3C40A8" cx="27" cy="127" r="2"></circle>
                            <circle id="Oval" fill="#3C40A8" cx="177" cy="27" r="2"></circle>
                            <circle id="Oval" fill="#3C40A8" cx="177" cy="77" r="2"></circle>
                            <circle id="Oval" fill="#3C40A8" cx="177" cy="127" r="2"></circle>
                            <circle id="Oval" fill="#3C40A8" cx="127" cy="27" r="2"></circle>
                            <circle id="Oval" fill="#3C40A8" cx="127" cy="77" r="2"></circle>
                            <circle id="Oval" fill="#3C40A8" cx="127" cy="127" r="2"></circle>
                            <circle id="Oval" fill="#3C40A8" cx="77" cy="27" r="2"></circle>
                            <circle id="Oval" fill="#3C40A8" cx="77" cy="77" r="2"></circle>
                            <circle id="Oval" fill="#3C40A8" cx="77" cy="127" r="2"></circle>
                            <circle id="Oval" fill="#3C40A8" cx="27" cy="27" r="2"></circle>
                            <circle id="Oval" fill="#3C40A8" cx="27" cy="77" r="2"></circle>
                            <circle id="Oval" fill="#3C40A8" cx="27" cy="127" r="2"></circle>
                        </g>
                    </g>
                </g>
            </g>
        </g>
    </g>
</svg>