<svg id="Isolation_Mode" data-name="Isolation Mode" xmlns="http://www.w3.org/2000/svg" xmlns:xlink="http://www.w3.org/1999/xlink" viewBox="0 0 264.34 264.31"><defs><style>.cls-1{fill:none;}.cls-2{clip-path:url(#clip-path);}.cls-3{fill:#342213;}</style><clipPath id="clip-path"><rect id="_Clipping_Path_" data-name="&lt;Clipping Path&gt;" class="cls-1" width="264.34" height="264.31"/></clipPath></defs><title>Artboard 1</title><g id="_Group_" data-name="&lt;Group&gt;"><g id="_Clip_Group_" data-name="&lt;Clip Group&gt;"><g class="cls-2"><path id="_Compound_Path_" data-name="&lt;Compound Path&gt;" class="cls-3" d="M282.85,65.13V87.07L264.33,97.85,245.82,87.07V65.13L254.64,60l9.14-5.31.56-.33ZM205.66,195.91l8.49-16.31h20.67v25.9l22,12.8-9.62,16.52H227.89V207.48Zm29.17-27.31H207.49l-11.57,22.23L190.41,188l-.83,1.59.83-1.59-10.81-5.63V161.67h25.91l12.8-22,16.53,9.62Zm-95.06,9.64,10-16.57h18.82V189l16.73,8.71h0l5.51,2.87-8.5,16.32H161.68V191ZM25.12,187.55h4.39v-8H50.18l8.49,16.31L36.45,207.48v27.33H17.62l-10-16.57L29.51,205.5V187.55Zm31.72-18.94H29.51V149.29l8.64-5L46,139.67l12.8,22H84.74v20.67l-6.09,3.17-10.23,5.33ZM7.52,46l9.61-16.51H36.44V56.84L58.67,68.41l-8.5,16.32H29.51V58.81l-11-6.39L16,56.77l-.2.35,2.73-4.69Zm22,49.71H56.85L68.42,73.49,84.74,82v20.67H58.82l-12.8,22L29.51,115Zm95.15-9.59L115,102.65H95.73V75.31L73.5,63.74,82,47.43h20.67V73.33Zm41.83,46,10.78-18.51h21.93L210,132.16l-10.77,18.52H177.26L170.7,139.4l-4.75,2.76,4.75-2.76Zm2.13-56.85v27.35H149.3l-9.62-16.53,22-12.8V47.43h20.67l8.49,16.31-10.78,5.61ZM99.79,113.64h21.57l10.81-18.57L143,113.66h21.56l-10.78,18.51,7.44,12.77,3.35,5.75h-21l-11.32,18.73-10.91-18.73H99.79l10.78-18.52ZM150.69,67,132.17,77.79,113.65,67V45.1l18.52-10.78L150.69,45.1ZM97.85,132.16,87.07,150.68H65.15L54.37,132.16l10.77-18.52H87.07Zm-14.13,63.1L82.6,193.1l0-.1-.85-1.64h0l.85,1.64h0l.16.31,1,1.94,12-6.25V161.67H115l9.62,16.52L116.39,183l-13.73,8V216.9H82l-8.49-16.32Zm29.92,2.05,8.26-4.81,10.26-6,18.51,10.77v21.93L132.17,230l-18.52-10.78Zm91.86-94.66H179.6V82l5.53-2.88h0l10.78-5.61,11.57,22.23h27.34V115l-5.85,3.4-10.68,6.21Zm29.32-43.84V84.74H214.16l-8.5-16.32,22.23-11.57V29.51H247.2L256.82,46l-7.71,4.48ZM232-18.52h18.4V-22.1C258.73-22.76,267.88-13,270.84-6c3.7,8.62,2.66,20.17,1.9,29.36l-.26.49c-.37.7-.79,1.44-1.21,2.18-.84,1.48-1.73,3-2.62,4.47-1.37,2.3-2.77,4.59-4.18,6.89l-11-18.82H231.95L242.74,0Zm-34.65,0h21.93L230,0,219.23,18.52H197.31L186.54,0Zm-19.12,26,12.8,22H216.9V39.93h0V50.17l-16.31,8.49L189,36.44H161.68V17.13l8.21-4.78h0ZM110.92-9.22l-.9-1.55-.37-.64-.41-.7a5.68,5.68,0,0,0,1.89-1.8c-.56.84,2.28.11,3.49.06q2.83-.13,5.66-.17,6.14-.09,12.27.2a185.85,185.85,0,0,1,22.11,2.47l-.34.58-.9,1.55L169.26,0l-4.9,2.85.9,1.55-.9-1.55-13.67,8V32.38L132.17,21.6,113.65,32.38v-21L94.92.09Zm-8.27,26.84V36.44H75.32L63.75,58.66,47.44,50.17V43.22h0V29.51H73.34L86.09,7.59ZM45.09-18.52H67L77.8,0,67,18.52H45.1L34.31,0ZM-9.22,21.25l-1.08.63c-1.57-6.27-2.63-12.94.12-19C-7.76-2.54-3.1-6.61,1.91-9.52c9-5.19,19.46-6.61,29.79-7.86L21.6,0,32.39,18.52H10.81L0,37.09Zm-9.3,43.88L0,54.36l13,7.56h0l5.51,3.21V87.07L0,97.85-18.52,87.08Zm-1.15,68,.26-14.91h.89V99.79L0,110.57,18.52,99.79v21.56l18.57,10.81-4.48,2.6L18.51,143v21.57L0,153.76l-18.52,10.78V146.13H-20C-19.7,141.8-19.75,137.44-19.67,133.1Zm1.15,66.07V177.25L0,166.47l18.52,10.78v21.92L0,209.95Zm50.89,83.67H18.52a6.25,6.25,0,0,0-.83,0l-2,0H14v0c-3.84.05-7.67,0-11.51-.09-1.33,0-5.28.47-6.36-.53s-.93-6.42-1.08-7.72l-3.74-32.19s0-.08,0-.11L.09,227.07,11.42,245.8h21L21.6,264.33Zm34.65,0H45.09L34.31,264.33,45.1,245.8H67L77.8,264.32Zm6.32-48H47.43V227.1h0V214.15l16.31-8.49,11.57,22.23h27.34V247.2l-6.4,3.73-10.12,5.89ZM165.46,267c-2,1.19-3.94,2.37-5.9,3.51-1,.57-2,1.13-2.91,1.65-.47.26-.94.51-1.37.73l-.53.26-.05,0,.61,2.13a103.28,103.28,0,0,1-23.78,3.68c-5.33.17-17.82,1.68-20.87-4-.09-.17-.18-.32-.28-.47l.55-.94-15.85-9.23,6.71-3.9-1.2-2.06-.08-.13-1.44-2.47.51.87h0l2.21,3.79,11.86-6.91V231.95l18.52,10.78,18.52-10.78v21.57l18.83,11Zm12.74-10.15-16.52-9.61V227.89H189l11.57-22.23,16.31,8.49v8.33h0v12.33H191Zm41,26H197.32L186.53,264.3l10.79-18.5h21.91L230,264.33Zm52.88-43c.26.47.51.94.73,1.37.1.21.2.41.25.53l0,.05,2.58-.74c3.63,10.74,5.94,23.93,1.31,34.47-4.84,11-16.41,9.39-26.65,9.26v-1.94H232l10.77-18.51L231.95,245.8h21.58l11-18.82L267,231c1.19,2,2.37,3.94,3.51,5.9C271,237.9,271.6,238.88,272.12,239.83Zm10.73-40.66-18.51,10.77-.21-.12-3-1.75-6-3.5-9.3-5.41V177.26l18.52-10.78,18.52,10.78Zm3.06-66a121.26,121.26,0,0,1-.41,12.94h-2.65v18.41l-18.52-10.78-18.51,10.78V143l-18.58-10.81,7.27-4.23-.9-1.55.9,1.55,11.31-6.58V99.79l18.51,10.78,18.52-10.78v18.4H286Q286,125.69,285.91,133.19Z"/></g></g></g></svg>