<?xml version="1.0" encoding="utf-8"?>
<!-- Generator: Adobe Illustrator 21.1.0, SVG Export Plug-In . SVG Version: 6.00 Build 0)  -->
<svg version="1.1" id="Layer_1" xmlns="http://www.w3.org/2000/svg" xmlns:xlink="http://www.w3.org/1999/xlink" x="0px" y="0px"
	 viewBox="0 0 963.8 301.3" style="enable-background:new 0 0 963.8 301.3;" xml:space="preserve">
<style type="text/css">
	.st0{fill:#0A2F43;}
</style>
<g id="Layer_x0020_1">
	<path class="st0" d="M396.8,186.9c-12.6-10.9-7.4-29-4.8-34.4c5.3-12.2,14.3-22.7,25.8-31.9c10.1-7.8,20.6-13.2,32.1-18.9
		c27.5-13,54-22.5,81.3-34.4c25.4-11.3,54.4-25.6,68.5-50.4c1.9-3.4,3.6-6.7,4.2-10.1c0.2-0.2-1.7-2.3-4.6,0.4
		c-4.2,4-7.1,8.6-11.1,12.6c-13.2,13.7-35.3,33.4-58.8,33.6c22.9-7.6,39.1-20.4,54-36.5c5.3-5.7,10.3-12.6,16.2-15.8
		c3.6-1.9,7.4-1.5,7.1,4.2c-0.4,4.2-1.5,8.6-3.2,13c-11.6,30.5-38.4,47.7-67.8,61.1c-38.4,17.9-76.4,27.7-112.1,51.5
		c-10.5,6.7-19.1,14.3-24.8,22.3c-3.8,5.5-13,16.6-0.4,26.3c0.2-0.6,0.2-1.3,0.4-1.7c1.1-4.6,1.9-8.8,3.8-12.2
		c1.5-2.3,8-13.4,9-13.4s-1.7,9-2.9,13.7c-3.2,12.6-4.8,20-4.6,26.3c0.2,8,6.5,11.6,11.8,11.8c6.7,0.4,10.5-3.2,14.7-8.2
		c1.9-2.3,4.4-6.3,7.1-8.6c2.5-2.1,5.9-3.2,9.2-1.7c5.5,1.7,12,3.4,18.3,4.2l0,0c5.7,0.8,13.4,1.3,20.8,1.1
		c8.6-0.2,16.6-1.5,24.2-2.9c28.6-6.1,53.3-23.7,74.1-43.7c15.3-14.7,31.5-32.6,42.4-34.9l0,0c1.5-0.2,0.6,2.1-0.4,5.3
		c-1.3,3.6-3.2,8-4.2,9c-1.7,2.1-6.5,2.3-11.1,6.1c-14.5,12.4-23.1,25.8-34.9,37.6c-20.6,21-48.1,39.3-77.7,44.5
		c-8.8,1.7-26.3,2.7-33.8,1.3c-8.2-0.8-16.8-2.5-24.4-5c-1.9,6.3-3.4,12-4.4,17.6c-1.1,8.2,1.3,13.7,6.3,15.5
		c3.2,1.1,7.6,0.8,12-1.5c1.3-0.6,2.5-1.5,3.8-2.3c0.6-0.6,1.3-1.3,2.1-2.1c1.9-2.1,4.4-6.1,6.5-7.6c1.7-1.1,5.9,0.2,10.7,1.3
		c3.2,0.4,6.9,0.8,9.7,1.1c10.7,0.4,22.9-0.6,33-2.7c28.6-5.9,53.3-23.7,74.1-43.7c10.5-9.9,20.6-21.2,29.4-28.4
		c2.9-2.3,6.9-5.3,10.7-6.3c0.6-3.2,1.5-6.1,2.5-9c5-13,11.6-22.5,21.4-30.7c7.1-5.9,15.1-10.7,23.5-15.1
		c12.4-6.5,25-12.4,37.2-18.5c5-2.3,7.6-3.6,7.8-3.6c0.8,0,1.5,0.6,1.5,2.1c0,0.4,0,0.8,0,1.3c-0.6,1.5-1.7,5-2.5,10.5
		c-0.8,4.2-1.3,8.4-1.7,12.6c-0.2,3.2-0.4,6.7-0.6,10.5c-1.5,23.5-2.3,36.3-2.5,38.4c0,0.6-0.2,1.3-0.2,1.7
		c11.8-4.6,28.1-15.1,32.3-25.4c-2.3-0.4-6.9-1.7-6.1-5.3c0.6-3.2,4.2-7.1,7.1-7.1c1.5,0,2.7,1.1,3.4,3.4c0.4,1.7,0.4,3.6,0,5.9
		c0.4,0.2,2.5,0.2,5-0.8c-2.3,3.8-5,4-6.3,4.2c-5.3,12.8-21.2,23.7-35.7,26.7c-1.7,11.3-6.5,26.9-14.1,39.3
		c-5,8.6-15.5,18.5-27.7,23.5c-8.4,3.6-17.9,4.4-25.4,1.7c-0.4-0.2-0.6-0.4-1-0.4c-7.1,3.6-9,11.6-5.5,15.3
		c4.2,4.8,10.1,5.9,17.6,5.5c17.9-1.1,34.9-10.5,46-24.4c2.1-2.5,5.7-7.8,7.4-12.8c1.9-5.3,2.7-10.3,4.2-11.6
		c1.5-0.8,1.9,3.4,0.2,13.7c-1.3,7.4-3.4,13.4-7.8,21c-8,13.2-20.8,22.9-34.9,26.3c-10.9,4-13,17.2-9.9,22.5
		c3.2,5.5,11.1,7.1,17.2,7.1c16.6,0.2,29.8-6.5,41.6-17.2c8.4-7.6,14.9-17.9,11.1-22.3c-2.5,0.6-5,1.1-7.8,1.5l0.2-0.2
		c-4.4,0.6-8.4,0.8-12.6,0.2c-4.2-0.4-2.5-23.1,11.1-27.3c7.4-2.1,12.6,2.3,15.3,8.4c17-4.8,25.8-14.9,35.5-24.6
		c6.7-6.7,12.8-12,17.4-12.8c1.9-0.2,0.2,10.1-3.8,11.6c-2.7,1.1-6.3,4-9.7,7.6c-4.8,4.8-9.7,10.9-12.6,14.1
		c-7.1,7.4-14.7,14.5-25,18.9c-1.7,12.4-7.1,26.5-16,37.2c-9.9,12-23.9,19.5-38.6,20c-12.2,0.4-27.1-6.3-28.4-23.3
		c-0.4-7.1,1.7-14.3,4.6-20c-3.2,0.2-6.3-0.2-9.5-0.8c-16-3.6-23.1-20.8-11.6-36.3c-2.9-2.9-5-7.8-4.4-15.5
		c-7.4,9.2-14.9,18.5-22.9,27.3c-14.7,16.4-30.7,31.9-48.5,44.7c-13.9,9.9-29,18.1-45.6,23.1c-14.5,4.4-30,6.9-46,6.5
		c-1.7-5.7-8.8-13-13.9-16.2c-2.9-1.9-7.6-3.8-11.6-5.3c1.5,2.1,1.5,4.4,0.6,7.4c-1.3,4.2-6.5,13-14.1,13.9c-2.9-1.9-7.8-5-11.1-6.7
		c-2.3,4.4-6.7,10.1-12.8,10.7c-3.6-2.1-9.5-6.3-13-7.6l13.9-20.8c3.4,0.2,6.7,1.5,10.1,4.4c2.7,2.1,3.8,4.2,3.8,6.9l10.1-15.3
		c1.7,0,3.2,0.4,4.8,1.1c6.3,2.1,15.1,2.7,21.8,3.2c12.8,1.1,23.9,0,35.7-1.7c21-2.9,42.2-10.1,60.5-20.4
		c17.2-9.9,31.5-22.7,46-35.9C620,207,628,198,636,188.8c1.5-1.7,2.7-3.4,4.2-5c-4.8-6.5-7.4-14.1-7.6-21.8c-2.5,0.6-8,3.6-12,6.9
		c-14.7,12.4-23.3,25.8-34.9,37.6c-20.8,21-48.1,39.3-77.9,44.5c-7.1,1.3-19.7,2.5-28.4,1.1c-7.8-0.4-14.9-3.2-17.9-4.6
		c-1.3-0.8-2.5,0.8-3.8,3.2c-2.9,5.3-6.7,9.7-11.3,12.2c-0.6,0.4-1.3,0.8-1.9,1.3c-3.6,1.7-8,2.1-13,0.2c-4.2-1.7-7.6-5.5-8.6-12
		c-0.8-4.8,0.2-11.3,0.8-15.3c1.7-9.2,6.9-22.9,10.5-31.7c-0.2,0-0.6-0.2-0.8-0.4c-1.5,0.2-2.7,0.8-4.4,2.9
		c-2.3,2.5-4.2,9.2-8.6,14.5c-6.7,8-17,8.8-22.5,1.7c-1.9,7.6-6.9,18.9-13.2,25.4c-3.6,3.8-7.8,5-12.2,4.4
		c-6.1-1.1-8.4-6.1-8.8-12.6c-1.5,3.2-2.9,6.3-4.8,9c-7.1,11.3-17.6,21-29.6,22.1c-22.3,2.1-29.8-15.5-23.7-31.7
		c-2.5-4-3.2-9.7-1.5-16.6c-19.5,1.1-26.9-14.1-22.9-29c-5.9,7.4-12,14.7-18.3,21.6c-14.7,16.4-30.7,31.9-48.5,44.7
		c-13.9,9.9-29,18.1-45.6,23.1c-14.5,4.4-30,6.9-46,6.5c-1.7-5.7-8.8-13-13.9-16.2c-4.2-2.7-12-5.3-16-7.1c-2.5-1.5-6.3-4.4-4-4.4
		c6.5,2.1,15.5,2.9,22.5,3.4c12.8,1.1,23.9,0,35.7-1.7c21-2.9,42.2-9.9,60.5-20.4c17.2-9.9,31.5-22.7,46-35.9
		c8.6-8,16.6-17.2,24.6-26.5c8.8-10.7,17.6-21.4,26.7-31.3c4.8-5.3,11.3-11.8,19.3-16.4c6.5-3.8,13.2-6.3,21-5
		c-1.9,5.5-3.8,10.7-5.5,16.8c-3.8-1.5-9.5,0.4-14.3,2.9c-7.8,4-14.7,10.3-18.1,14.3c-7.1,7.8-13.7,15.8-20.2,23.9
		c-3.6,6.7-4.4,12.4-2.1,16c4,6.5,15.1,6.7,22.9,5.3c9.7-1.9,17.4-6.9,23.3-13.9c4.6-5.5,8.2-12,10.7-18.7c1.9-5,2.3-10.1,3.8-11.1
		c1.5-1.1,1.5,2.9-0.6,13.2c-1.5,7.4-4.8,16-9.7,23.7c-7.1,11.1-17.2,20.4-28.8,21.8l-0.2,0.2c-0.4,4,1.5,6.1,4.4,7.4
		c6.9,2.7,15.1,1.3,21.6-2.1c8.2-4.2,13.9-11.1,17.6-18.1c2.9-5.7,4-13.7,4.6-21.8c1.1-11.6-0.2-24.8,1.7-36.1
		c2.1-11.1,6.5-18.1,10.9-27.9c1.9-4,2.1-6.7,1.5,5.3c-0.4,6.9-0.6,13.9-1.1,20.8c-1.5,23.3-1.7,21-1.9,23.1
		c-0.6,7.1-2.1,16.6-5.5,26c-4.8,13.2-12,30.5-24.2,39.7c-9.7,7.1-20.6,8.4-26.9,4.6c-0.6-0.4-1.3-0.8-1.7-1.5
		c-1.1,3.4-0.8,6.1,0.6,8.6c4,6.3,15.1,6.7,22.9,5c9.7-1.7,17.4-6.9,23.3-13.9c4.6-5.3,8-11.8,10.5-18.5c0.4-1.5,1.1-2.7,1.5-4
		c1.1-4.4,2.7-9.7,3.4-11.6c1.3-4.2,3.2-5.7,4-4.8c0.4,0.6,0.6,2.5,0,6.1c-0.6,4-2.5,10.9-1.5,14.9c0.8,4,2.9,6.9,8.4,7.6
		c8,1.1,12.6-9,13.9-15.3c-1.1-4-1.1-8.8-0.6-13.7S395.5,193,396.8,186.9z M858,99.1h25.6V206l-12.4,13L858,206V99.1z M823.1,231
		l26.9-26.3l19.7,20l-9.9,9.9l1,0.8l0,0l10.5,10.1l4.6-4.6l0,0l1.5-1.5l5-5l-9.7-9.7l19.3-20l26.3,26.3l-20,19.7l0,0L871,278.4
		l-26.3-26l0.2-0.2L823.1,231z M787,133.1l25.2-24.2l-0.4,25.6L787.4,160L787,133.1z M786.8,124.5L813,98.7V75.1l7.1-18.3l4-6.1
		l5-5.9l5-4.8l8.4-5.7l8.6-4.6l10.9-4.6l9-2.5v-0.2l8.6,2.5l11.1,4.4l8.8,4.6l8.4,5.7l5,4.6l5.3,5.9l4,6.1l4.8,9.9l2.3,8.2V245
		h-13.7l-34.9,34.7h82.7v-29.2l0,0v-160v-9.2L963,71.2l-2.1-6.3l-2.1-5l-4-7.4l-2.9-5l-3.8-4.8l-6.5-7.1l-6.3-5.9l-5.9-4.6l-7.1-4.6
		l-7.4-4l-12.4-5.7l-12.4-4.4l-16-3.8l-3.4-1.1v0.2l-2.9,1.1l-15.5,3.8l-12.4,4.6l-12.4,5.5l-7.1,4.2l-6.9,4.6l1.7-1.3l-6.5,6.1
		l-6.3,7.1l-3.8,4.8l-2.7,5l-4.2,7.4l-1.9,5.3l-2.1,6.3l-0.8,10.3v9V124.5z M848.7,99.1h-25.6V172l25.6,25V99.1z M892.8,99.1h25.6
		V172l-25.6,25V99.1z M64.2,187.7c-2.9,4.4-8.2,9-12.6,9.9c-3.4,0.8-7.1-1.3-9.9-2.5c-4.8-2.5-12.4-1.3-18.3,1.3
		c-9.2,4-16.2,12.6-18.3,20.8c-1.1,5-2.1,12.4-0.2,18.1c2.3,7.8,16.6,13.2,26.7,9.5c0.2-1.1,0.6-2.1,0.8-3.4
		c1.5-4.6,3.6-10.5,7.1-16.4c5.5-8.2,12.6-17.2,21.2-15.3c2.5,0.4,9.7,2.3,16.4,3.4c5,0.8,9.9,1.5,14.7,1.7
		c24.6,1.3,46.8-2.5,70.6-12.4c17.4-7.1,37.2-18.3,51.5-29.6c4.2-3.4,8-6.5,11.6-8.8l0.8-0.6h0.2l0,0v-0.2c1.9-1.1,4-2.3,6.3-3.4
		c0.8-0.4,1.7-0.8,2.3-1.3c0.6-2.7,2.9-7.1,3.8-9.7c2.1-5.3,8-16.4,15.8-20.2c5.9-2.9,13.7-0.8,14.1,6.7c0,0.6,0,1.3,0,2.1
		c-0.2,1.5-0.4,3.2-0.6,4c-0.6,2.7-0.8,4.8-0.6,6.7c0.8,5.3,6.5,5.9,11.3,4.8c4.8-1.1,8.8-4.2,10.7-6.9c3.8-5.3,4.4-12.4,5-19.3
		c0.4-3.4,0.4-6.9,0.6-10.5c0.4-16.2-1.3-33.8,1.1-47.7c0.6-4.6,1.5-7.8,2.7-11.3c1.1-3.8,2.1-7.6,2.7-9c0.4-1.3,1.9-4,2.1-6.3
		c0.4-1.7,0-3.2-1.3-4c-2.1-1.1-5.3-0.6-9,0.2c-6.7,1.3-13.7,4-20.4,6.1c-10.7,3.6-20.8,7.1-30.9,11.3c-21,9.2-48.5,23.5-54.6,47.9
		c-1.5,6.1-1.3,12.4,0.4,18.5c7.1-2.3,16.6-8.8,21-20c-2.3-0.6-6.9-1.7-6.1-5.5c0.8-3.2,4.4-6.9,7.1-7.1c1.5,0,2.7,1.1,3.4,3.4
		c0.6,1.7,0.4,3.6,0,5.9c0.6,0.2,2.7,0.2,5-0.8c-2.3,3.8-5,4-6.3,4.4c-5.7,13.4-13.2,19.1-23.7,21c1.7,4.6,4.2,9,8,12.8
		c2.3-1.7,4.8-3.4,7.4-5c7.8-5.5,15.3-10.7,20.6-13.4c2.1-1.5,4.4-2.7,8.2-4.2c0.6-3.8,2.1-8.4,4-12.8c-0.2-0.2-0.2-0.4,0.2-0.6l0,0
		c-3.8-0.8-16.2-5-16.2-10.7c-0.2-4.4,1.3-6.9,9.2-15.3c3.6-3.8,7.8-6.7,13.2-9c5.3-2.1,11.1-3.6,17-4.2c2.5-0.4,5.3-0.6,7.8-0.8
		c3.6,0,5.5,1.1,5.5,3.2c0.2,0.6-0.2,2.1-0.6,4.4c-0.8,3.8-4,9.9-6.7,14.5c-2.1,3.4-4,6.1-6.5,8.8l-0.2,0.2
		c-0.2,0.4-0.6,0.6-1.1,1.1c-2.1,2.1-5.3,4.4-8.6,6.5c-1.1,0.8-2.1,1.7-2.9,2.5c-4.2,3.6-6.7,4.6-4.2,8.6c2.3,3.6,8,6.5,9,9.7
		c1.3,4-5.7,17-10.7,15.3c-3.6-1.1-4.8-2.1-9-3.4c-5.7-1.5-11.8,3.4-16.8,7.6c-0.6,0.4-1.1,1.1-1.7,1.5
		c-16.2,14.9-34.2,29.8-54.6,40.1c-17.2,8.6-35.9,13.9-55.4,13.4c-12.4-0.4-26.7-7.6-31.1-17.9c-2.5,4-4.4,7.8-7.6,11.6
		C64.4,187.3,64.2,187.5,64.2,187.7z M31.6,251.5l-0.2,0.6c0,0-0.2,0-0.4,0.2h-0.2c-14.7,3.4-24.6-5.7-28.6-14.5
		c-2.7-6.3-2.7-14.7-1.1-22.5c1.5-6.7,3.2-11.6,6.3-17.2c3.2-5.5,7.4-10.5,12.4-15.1c8.4-7.4,19.5-12.8,31.3-10.9
		c2.3,0.4,4.4,1.9,6.7,1.7l0,0c0.2,0,0.4,0,0.8,0l0,0l0,0c3.8-0.6,6.9-2.9,8.6-6.7c0.8-1.7,0.4-3.4-0.2-4.8
		c-0.6-1.9-2.1-3.6-4.4-4.8c-2.7-1.5-3.6-1.3-5.7-1.3c-2.7,0-4.6,1.1-4.6,0.6c0.8-13,18.1-27.7,31.1-18.7c7.6,5.5,3.2,17.9-0.2,22.5
		c3.6,4,13.7,7.1,25.2,7.4c26.7,0.8,55.9-11.8,77.9-25.4c2.7-1.7,5.5-3.6,8.2-5.5c-10.1-7.4-12.8-22.5-9.7-36.1
		c5.7-26,31.9-42,54.2-52.9c9.5-4.6,19.3-8.6,29.4-12.6c12.4-4.8,24.6-9.9,37-15.5c5-2.3,8-3.2,8.2-3.2c1.1,0,1.7,0.6,1.7,2.1
		c0,0.4,0,0.8,0,1.5c-0.6,1.5-1.7,4.8-2.7,10.5c-0.6,4.2-1.3,9-1.9,13.7c0,1.7-0.2,3.6-0.6,5.9c-0.2,0.8-0.2,2.3-0.4,4l0,0
		c0,0.4,0,0.8,0,1.3l0,0c-0.4,4-0.6,8.6-0.8,10.1c-0.2,3.8-0.4,7.6-0.6,11.3c-0.2,9.5,0.2,18.1-0.2,26.5c-0.6,8.2-1.9,16.2-4.2,24.2
		c-2.3,7.6-5.7,16.2-10.1,23.3c-2.1,3.4-4.4,6.5-7.1,9c-4.6,4.8-10.9,8.2-17.4,5.9c-5.3-1.9-8.2-8.2-6.3-17.2c1.1-5-0.2-6.9-1.5-8
		c-0.4-0.2-0.6-0.2-1.1-0.4s-0.8-0.2-1.3-0.4c-0.2,0-0.4,0-0.6,0c-5.9-0.6-14.7,3.2-14.5,10.5c0.2,9,9.7,10.5,11.1,14.9
		c1.1,3.6-7.4,14.7-11.3,13.2c-1.3-0.2-2.5-1.3-3.6-2.5c-1.1-1.1-2.3-1.9-3.4-2.5c-1.7-0.4-2.7-0.2-4,0.2c-2.9,0.8-5.7,3.4-8.8,5.9
		c-7.8,5.7-16.4,13.7-22.3,18.3c-13.9,10.9-26.7,20.8-42,28.4c-18.9,9.5-42.2,15.3-67.6,15.5c-5.9,0.2-11.6-0.2-17-1.3
		c-10.9-1.3-20.6-4.6-24.2-5.7c-3.6-0.8-5.3-2.9-8.2,0.2c-2.7,2.9-6.1,7.8-7.4,10.3C33.7,248.4,32.4,250.5,31.6,251.5z M210.5,97.8
		c0.2-0.4,0.2-0.8,0.2-1.3c0-3.8-4.2-4.6-5-1.7C205.3,96.4,207.4,96.8,210.5,97.8z M32.9,283.3c0-2.1,0.2-4.4,0.8-7.1
		c1.1-3.2,2.1-6.5,3.6-10.1c1.9-4.8,4.4-9.7,7.4-14.7c0.8-1.5,1.5-2.3,2.1-2.3c0,0,0.2,0,0.2,0.2c0,0.4-0.2,1.3-0.6,2.5
		c-1.9,4.2-4.2,9.2-6.7,15.8c-1.5,3.8-0.8,7.4,1.1,9.2c1.5,1.3,2.9,1.7,4.2,1.9c0.8,0,1.5-1.7,2.1-1.7c1.7-0.2,1.9,0.8,1.7,2.7
		c-0.6,5.5-3.2,9.2-5.5,10.7C39,293.1,33.5,289.8,32.9,283.3z M238.7,202.8c-1.3,4.4-6.5,13-14.1,13.9c-3.6-2.1-9.5-6.1-13-7.6
		l13.9-20.6c3.4,0,6.7,1.5,10.1,4.2C239.3,195.7,239.9,198.8,238.7,202.8z M243.5,90.3c2.1-1.9,4.6-3.4,6.9-4.8
		c3.6-2.3,7.1-4.8,8.6-6.1c2.7-1.9,3.8-3.4,3.8-4.6c-0.2-2.5-6.1-1.7-11.6-0.8c-6.5,1.1-13,2.5-14.1,2.9c-5.3,1.7-9.5,3.6-9.2,6.9
		c0,4.6,9.2,8.2,13,8.2C241.6,91.5,242.4,90.9,243.5,90.3z M401.2,114.6c-1.3,4.2-6.5,13-14.3,13.7c-3.4-2.1-9.2-6.1-12.8-7.4
		l13.9-20.8c3.4,0,6.7,1.5,10.1,4.2C401.6,107.5,402.5,110.4,401.2,114.6z M471.1,148.9c-1.1,4.2-6.3,13-14.1,13.7
		c-2.7-1.7-7.6-4.8-10.9-6.5c-2.3,4.4-6.9,9.9-13,10.5c-3.4-2.1-9.2-6.1-12.8-7.4l13.9-20.8c3.4,0,6.7,1.5,10.1,4.2
		c2.7,2.3,3.8,4.4,3.6,6.9l10.3-15.1c3.4,0,6.7,1.5,10.1,4.2C471.8,141.7,472.6,144.7,471.1,148.9z M641.5,182.2
		c6.9-8.6,14.1-17,21.4-25c4.6-5,11.1-11.6,19.1-16.2c6.5-3.8,13.2-6.3,21-5c-1.9,5.5-3.8,10.7-5.5,16.8c-3.8-1.7-9.5,0.4-14.3,2.9
		c-7.8,4-14.7,10.3-18.1,14.1c-6.3,7.1-12.2,14.3-17.9,21.4c-0.6,10.5,10.3,12.8,22.1,11.3c13.7-1.5,28.6-10.5,33.4-19.3
		c3.2-5.9,5-13,5.9-18.9c0.6-5.3,0.2-13.9,0.8-26.5c0.4-12.2,1.1-20,1.7-23.7c0.2-1.7,0.6-3.4,1.1-4.8c0.2-1.9,0.8-4.2,1.7-6.3
		c0.6-1.9,1.3-3.6,1.9-5.5c0.4-0.8,0.8-2.1,1.3-3.4c0.2-0.6,0.2-0.8,0.2-1.1c0-2.7-2.3-3.6-5-3.4c-6.7,1.1-17.6,5.9-28.4,11.3
		c-8.4,4.2-15.5,8.6-21.8,14.1c-6.7,5.9-10.9,12-16.8,20.8C636.2,149.7,631.6,166.9,641.5,182.2z M219.8,154.9
		c-3.4,6.9-12.2,4.8-10.5-4.2c0.4-1.3,0.8-2.5,1.3-3.6c0.6-1.1,0.8-1.1,0.6,0.2c0,0.8-0.2,2.3,0.2,3.4c0.6,1.3,2.5,1.7,4,1.5
		c1.9-0.2,3.4-1.9,4-3.8c0.8-2.1,1.1-2.7,1.1-2.1c0.2,0.4,0,1.5,0.4,2.1c0.8,1.3,2.3,1.5,3.6,1.1c1.3-0.4,2.3-1.3,2.9-1.9
		c0.8-1.3,1.5-2.7,1.7-4.4c0.4-1.5,0.8-1.3,0.8,0.2c0.2,4.2-1.1,9.7-4.2,12.2C223.5,157.3,221,157.5,219.8,154.9z M768.1,150.7
		c-1,4.2-6.3,13-14.1,13.7c-3.4-2.1-9.5-6.1-12.8-7.4l13.7-20.8c3.4,0,6.7,1.5,10.1,4.4C768.7,143.6,769.6,146.5,768.1,150.7z
		 M273.3,103.7c0.2,0-0.8,3.6-2.3,4.2c-3.4,2.1-8.2,4.8-10.7,8.4c-0.8,1.3-1.5,2.7-1.3,4.4c0,0.4,0,0.8-0.4,0.4
		c-1.5-3.2-1.3-5.9,0.4-8c-2.7-0.2-5.9-2.7-5.7-5.7c0-0.8,0.2-1.5,0.6-2.1c2.5-3.6,4.2-5.7,4.8-6.3c2.3-2.5,4.4-3.8,6.5-3.6
		c1.9,0.2,4,1.3,4,3.6c0,2.9-2.9,5.3-2.7,4.6c0.4-0.4,0.6-1.3,0.8-1.5c0-0.8-0.4-1.5-1.1-1.9c-1.1-0.6-2.5-0.6-3.4-0.6
		c-1.7,0.2-3.2,0.4-4.2,1.9c-0.2,0.2-0.2,0.4-0.2,0.8c0,0.8,0.6,1.7,1.9,2.7c1.7,1.1,2.7,1.5,4.8,1.7
		C268.5,107.1,270.2,105.4,273.3,103.7z M754,119.7c0.2-0.4,0.2-1.1,0.2-1.5c-0.2-3.6-4.4-4.4-5-1.5
		C748.8,118.2,750.9,118.6,754,119.7z M779.4,174.3c-1.1,4.2-6.3,13-14.1,13.9c-2.9-1.9-7.6-5-11.1-6.7c-2.1,4.4-6.7,10.1-12.8,10.7
		c-3.4-2.1-9.2-6.1-12.8-7.6l13.9-20.8c3.4,0.2,6.7,1.7,10.1,4.4c2.5,2.1,3.8,4.4,3.6,6.9l10.3-15.3c3.4,0.2,6.7,1.7,10.1,4.4
		C780.1,167.1,780.9,170.1,779.4,174.3z M515.2,159.6c-0.2,0.4-0.4,0.4-0.6,0.4c-0.2-0.2-0.4-0.4-0.4-0.8c0.8-4.2,1.5-8.4,0.6-12.6
		c-0.6-2.7-1.9-5.5-3.2-7.8c-1.3-2.1-2.9-4.2-5.3-5.7c0.8-1.3,2.3-3.6,3.2-5.3c2.5,1.9,4.4,4.2,5.7,7.1c1.5,3.4,2.3,7.4,2.3,11.3
		C517.8,150.5,517.6,155.6,515.2,159.6z"/>
</g>
</svg>
