<?xml version="1.0" encoding="utf-8"?>
<!-- Generator: Adobe Illustrator 21.1.0, SVG Export Plug-In . SVG Version: 6.00 Build 0)  -->
<svg version="1.1" id="Layer_1" xmlns="http://www.w3.org/2000/svg" xmlns:xlink="http://www.w3.org/1999/xlink" x="0px" y="0px"
	 viewBox="0 0 106.7 106.7" style="enable-background:new 0 0 106.7 106.7;" xml:space="preserve">
<style type="text/css">
	.st0{fill:#D7DFE7;}
	.st1{fill:#11394F;}
</style>
<g>
	<circle class="st0" cx="53.3" cy="53.3" r="53.3"/>
	<g>
		<path class="st1" d="M91.8,52.8c0,8.3-2.2,15.5-6.5,22.1c-0.9,1.4-1.9,2.7-3,3.9c-0.7,0.8-0.6,1.6-0.5,2.4
			c0.3,2.5,0.8,5.1,1.1,7.6c0.2,1.6-0.3,1.9-1.9,1.3c-2.2-0.9-4.5-1.7-6.7-2.7c-1.1-0.4-2.1-0.4-3.1,0.1c-3.9,2-8,3.4-12.3,4
			c-2.9,0.4-5.9,0.6-9,0.2c-3.3-0.4-6.5-1-9.7-2.1c-6.7-2.4-12.3-6.4-16.8-11.9c-4.4-5.3-7.1-11.4-8.2-18.2
			c-1.1-7.2-0.3-14.3,2.6-21.2c1.9-4.6,4.6-8.6,8.1-12c5.3-5.2,11.6-8.9,19-10.4c2.8-0.6,5.6-1.1,8.4-1c4.5,0.1,9.1,0.8,13.4,2.5
			c6.2,2.4,11.5,6,15.8,11.1c4.2,4.9,7,10.6,8.4,17C91.5,47.9,91.9,50.6,91.8,52.8z M32.6,69.9c-0.1,0.2-0.2,0.3-0.3,0.5
			c1.1,1,2.3,2,3.3,3c4.1,4,9.2,5.8,14.7,6.1c4.7,0.2,9.2-1,13.2-3.6c6.3-4.1,10-9.5,9.2-17.3c-0.4-3.7-1.6-7.1-3.7-10.2
			c-1.7-2.5-3.7-4.9-5.3-7.5c-2.4-3.8-3.5-6.8,0.3-11c0.2-0.2,0.6-0.3,0.3-0.7c-0.3-0.4-0.6-0.3-1-0.2c-3.1,0.4-6.2,0.9-9,2.7
			c-4.6,3-7,7.3-7.4,12.7c-0.3,3.6,0.9,6.8,1.9,10.2c1.1,3.8,1.5,7.5-0.6,11.2c-2.6,4.6-8.9,6.7-13.8,4.6
			C33.9,70.1,33.3,69.7,32.6,69.9z"/>
	</g>
</g>
</svg>
